<svg id="Layer_1" data-name="Layer 1" xmlns="http://www.w3.org/2000/svg" viewBox="0 0 162.76 35.05"><defs><style>.cls-1{fill:#26100e;}.cls-2{fill:#fff;stroke:#26100e;stroke-miterlimit:10;stroke-width:0.25px;}</style></defs><path class="cls-1" d="M11,1a6.86,6.86,0,0,1,2.74,1A14.29,14.29,0,0,1,16,3.71,17.69,17.69,0,0,1,17.75,5.5a14.22,14.22,0,0,0,1,1.08c.14.14.19.47.15,1a9.5,9.5,0,0,1-.36,1.82,18.87,18.87,0,0,1-.84,2.3,15.75,15.75,0,0,1-1.29,2.39,13.34,13.34,0,0,1-1.69,2.08,6.08,6.08,0,0,1-2,1.38c0-.12,0-.48.14-1.09s.2-1.35.33-2.22.27-1.78.41-2.77.25-1.9.34-2.75S14,7.13,14,6.53s0-.92-.19-1-.68,0-1.31.57A14.75,14.75,0,0,0,10.4,8.38,30.63,30.63,0,0,0,8,12a24.49,24.49,0,0,0-2,4.39,3,3,0,0,0,1,1.46,8.53,8.53,0,0,0,1.47,1c.52.28,1,.52,1.52.73a3.68,3.68,0,0,1,1.07.65c-.42.62-.87,1.22-1.34,1.79s-.91,1.13-1.31,1.66a11.07,11.07,0,0,0-1,1.55,2.93,2.93,0,0,0-.38,1.41,2,2,0,0,0,.57,1.28A4.94,4.94,0,0,0,9.49,29a4.09,4.09,0,0,0,1.67-.81,15.52,15.52,0,0,0,1.95-1.72,26.39,26.39,0,0,0,1.94-2.27c.63-.83,1.2-1.65,1.73-2.45.34-.54.65-1.06.95-1.55s.53-.92.73-1.28.35-.65.45-.86.14-.32.12-.32l2.56,1L21,19.91c-.2.34-.43.75-.68,1.22s-.54,1-.88,1.52-.88,1.4-1.43,2.15S16.86,26.29,16.24,27,15,28.43,14.32,29.09a24.21,24.21,0,0,1-1.88,1.74A11.53,11.53,0,0,1,10.76,32a3.12,3.12,0,0,1-1.3.48A5.06,5.06,0,0,1,7,32,16.15,16.15,0,0,1,4.6,30.56a20.2,20.2,0,0,1-2-1.62,12.12,12.12,0,0,1-1.22-1.23,2.27,2.27,0,0,1-.59-1.77,4.33,4.33,0,0,1,.74-1.74A16.93,16.93,0,0,1,3,22.35a23.52,23.52,0,0,0,1.69-2.08,5.17,5.17,0,0,0-1-.65,8.53,8.53,0,0,1-1.22-.73,8,8,0,0,1-1.25-1.13A7.73,7.73,0,0,1,0,15.94,27.64,27.64,0,0,1,1.35,12a33.73,33.73,0,0,1,1.84-3.6A28.19,28.19,0,0,1,5.31,5.36,26.88,26.88,0,0,1,7.46,3a9.94,9.94,0,0,1,2-1.52A2.79,2.79,0,0,1,11,1Z"/><path class="cls-1" d="M42.75,23.4c-.2.84-.36,1.52-.47,2s-.12.75,0,.71a5.77,5.77,0,0,0,.48-.68c.24-.37.51-.81.83-1.32s.63-1.05,1-1.63l.95-1.58.72-1.18c.19-.32.31-.47.35-.47a2.92,2.92,0,0,1,.41.07l.78.19a7.79,7.79,0,0,1,.81.24A1.5,1.5,0,0,1,49,20c0,.06-.06.33-.3.8s-.57,1.05-1,1.73-.84,1.41-1.34,2.18-1,1.5-1.42,2.17-.88,1.23-1.25,1.67-.63.67-.77.69a3.75,3.75,0,0,1-1.05-.14,11.41,11.41,0,0,1-1.7-.51,9.5,9.5,0,0,1-1.78-.88,3.42,3.42,0,0,1-1.22-1.24,3.7,3.7,0,0,1-.32-1.59,12.94,12.94,0,0,1,.17-2.16,20.47,20.47,0,0,1,.51-2.34c.22-.79.45-1.54.69-2.23s.48-1.29.71-1.8a5.42,5.42,0,0,1,.56-1,11.91,11.91,0,0,0-2.71,3,27.48,27.48,0,0,0-2,3.66c-.57,1.24-1.06,2.45-1.46,3.61s-.74,2.1-1,2.83l-.22,1q0,.09-.33,0A7.62,7.62,0,0,1,31,29.2c-.31-.12-.65-.25-1-.41s-.68-.33-1-.5a7.06,7.06,0,0,1-.85-.51,1.94,1.94,0,0,1-.48-.44,3.27,3.27,0,0,1-.38-1.42,8.47,8.47,0,0,1,.11-1.78,14.6,14.6,0,0,1,.45-1.94c.2-.66.42-1.32.66-2a40.9,40.9,0,0,1,2.14-4.66,11.05,11.05,0,0,0-3.11,2.51,18.38,18.38,0,0,0-2.28,3.28,22.08,22.08,0,0,0-1.5,3.43A23.26,23.26,0,0,0,23,27.74c0,.28,0,.56,0,.85s0,.58.05.86c-.89-.24-1.68-.47-2.38-.69s-1.16-.4-1.66-.59-.77-.34-.81-.46a12.82,12.82,0,0,1-.51-3.34,18.75,18.75,0,0,1,.23-3.29,22.11,22.11,0,0,1,.7-3,27.41,27.41,0,0,1,.94-2.6q.48-1.15.9-1.95c.28-.54.48-.9.6-1.1s.24-.13.54-.09a8.41,8.41,0,0,1,1.06.22c.4.11.82.25,1.27.42s.87.35,1.24.52a5.45,5.45,0,0,1,.87.48c.21.15.29.25.23.31a9.65,9.65,0,0,0-1,1.88,23.68,23.68,0,0,0-1.28,3.72,33,33,0,0,1,2.15-2.59c.81-.88,1.62-1.68,2.41-2.39a25.72,25.72,0,0,1,2.14-1.75A3,3,0,0,1,32,12.45a3.59,3.59,0,0,1,1.3.31,10.83,10.83,0,0,1,1.49.73,8.28,8.28,0,0,1,1.16.78c.3.25.4.42.3.52a5,5,0,0,0-.91,1.49,22.34,22.34,0,0,0-.81,2.37c.56-.79,1.16-1.55,1.79-2.29s1.25-1.4,1.84-2A18.81,18.81,0,0,1,39.71,13a2.07,2.07,0,0,1,1-.52,4.46,4.46,0,0,1,1.4.31,15.3,15.3,0,0,1,1.72.73,11.71,11.71,0,0,1,1.38.78c.37.25.51.42.41.52a4.49,4.49,0,0,0-.82,1.31,20.53,20.53,0,0,0-.75,2c-.24.77-.47,1.62-.69,2.53S43,22.5,42.75,23.4Z"/><path class="cls-1" d="M54.36,13.62l-.34.63c-.11.2-.22.41-.32.64a10,10,0,0,1,.88-.8,10.84,10.84,0,0,1,1-.74,5.38,5.38,0,0,1,1-.53,2.14,2.14,0,0,1,.94-.16,5.69,5.69,0,0,1,2.11.59,4.49,4.49,0,0,1,1.26.94,3.09,3.09,0,0,1,.64,1c.12.33.2.57.24.71a4.45,4.45,0,0,1-.06,1.41,18.15,18.15,0,0,1-.53,2.29c-.25.86-.57,1.78-.95,2.74a23.86,23.86,0,0,1-1.28,2.75,13.87,13.87,0,0,1-1.55,2.33,5.42,5.42,0,0,1-1.74,1.48,3.73,3.73,0,0,1-2,.51,5.19,5.19,0,0,1-2.71-1.2,5.58,5.58,0,0,1-.77-.85c-.14,1.31-.22,2.59-.25,3.86s-.07,2.53-.11,3.82c-.88-.24-1.68-.47-2.38-.69s-1.15-.38-1.65-.58-.76-.35-.78-.45a26.1,26.1,0,0,1-.38-5.25,30.59,30.59,0,0,1,.6-5.17,35.52,35.52,0,0,1,1.51-5.29,55.4,55.4,0,0,1,2.39-5.56l1.41.33,1.31.33c.47.12.9.24,1.3.36s.71.23,1,.33S54.4,13.58,54.36,13.62Zm1.81,1.05c-.16-.08-.42,0-.77.22a8.2,8.2,0,0,0-1.1.85c-.38.35-.75.73-1.11,1.13s-.64.73-.84,1a36.68,36.68,0,0,0-1.18,3.6q-.45,1.72-.72,3.42c.1.22.21.47.33.76a7.12,7.12,0,0,0,.41.83,5.53,5.53,0,0,0,.47.69,1.18,1.18,0,0,0,.48.39c.12.05.34-.23.67-.81a19.52,19.52,0,0,0,1.07-2.22c.38-.91.77-1.91,1.15-3s.7-2.12,1-3.08a14.76,14.76,0,0,0,.48-2.5C56.53,15.24,56.43,14.81,56.17,14.67Zm-4.06,3.65v0a.9.9,0,0,1,0-.15A.27.27,0,0,0,52.11,18.32Z"/><path class="cls-1" d="M64.84,12.3c1,.24,1.93.47,2.74.69l1,.28.83.25a3,3,0,0,1,.56.21c.13.07.18.11.16.13a5.78,5.78,0,0,0-.9,1.55c-.32.73-.64,1.56-1,2.48s-.61,1.89-.9,2.88-.54,1.89-.75,2.69-.37,1.46-.47,2-.13.75-.09.71a5.77,5.77,0,0,0,.48-.68c.24-.37.52-.81.83-1.32s.64-1.05,1-1.63l1-1.58L70,19.75c.19-.32.3-.47.34-.47l.43.07c.24,0,.5.11.79.19s.56.15.82.24a1.06,1.06,0,0,1,.46.25c0,.06-.06.33-.3.8s-.56,1.05-1,1.73-.83,1.41-1.32,2.18-1,1.5-1.43,2.17-.88,1.23-1.25,1.67-.63.67-.77.69a3.13,3.13,0,0,1-1-.14,9,9,0,0,1-1.52-.51,7.45,7.45,0,0,1-1.55-.88,3.08,3.08,0,0,1-1-1.24,4.52,4.52,0,0,1-.18-1.83,27,27,0,0,1,.3-2.82c.16-1,.36-2.1.61-3.2s.52-2.12.8-3a18.66,18.66,0,0,1,.84-2.3C64.4,12.69,64.64,12.36,64.84,12.3Zm2.28-6.86c.1-.23.4-.31.89-.26a9.23,9.23,0,0,1,1.58.32c.66.2,1.4.46,2.2.78L68.9,10.67a4,4,0,0,1-1,.06,2.53,2.53,0,0,1-.79-.19,1.3,1.3,0,0,1-.63-.62,2.94,2.94,0,0,1-.28-1.46A6.28,6.28,0,0,1,66.49,7,10.19,10.19,0,0,1,67.12,5.44Z"/><path class="cls-1" d="M84,13.68l.4.14c.15,0,.32.11.5.19.58-1.6,1.2-3.17,1.86-4.69s1.32-3,2-4.37a21.28,21.28,0,0,0-3.32,1.76,18.76,18.76,0,0,0-2.26,1.78,20,20,0,0,0-1.7,1.78c-.5.59-1,1.18-1.6,1.79-.64-.61-1.21-1.17-1.71-1.69S77.29,9.51,77,9.12s-.45-.63-.39-.74a6.5,6.5,0,0,1,1.58-1.91,19.65,19.65,0,0,1,2.49-1.79,29.61,29.61,0,0,1,2.9-1.55c1-.47,2-.87,2.87-1.22s1.69-.6,2.37-.79A6.25,6.25,0,0,1,90.15.83a2,2,0,0,1,1,.51c.45.34.92.74,1.4,1.18a16.06,16.06,0,0,1,1.3,1.32,3.36,3.36,0,0,1,.66,1,1.11,1.11,0,0,1,0,.49,2.75,2.75,0,0,1-.18.63c-.09.22-.19.44-.3.67a6.54,6.54,0,0,1-.34.65c-.85,1.61-1.59,3.22-2.25,4.83s-1.23,3.23-1.76,4.83c1,.72,2,1.47,3,2.24a16.5,16.5,0,0,1,2.18,2.12q.57-2.4,1.43-4.93t1.85-5c.66-1.64,1.34-3.22,2-4.76s1.37-2.94,2-4.22c.62.12,1.17.23,1.63.34l1.5.35c.54.12,1,.24,1.49.36a10.46,10.46,0,0,1,1.1.35c.28.11.4.18.36.22-.76,1.41-1.5,2.91-2.21,4.52s-1.39,3.25-2,4.93-1.23,3.38-1.76,5.09-1,3.35-1.4,4.93-.72,3.08-1,4.49a28.72,28.72,0,0,0-.43,3.76L96.83,31c-.67-.2-1.27-.41-1.82-.61s-.84-.36-.86-.48a12.68,12.68,0,0,1-.2-2.1,17.5,17.5,0,0,1,.14-2.35,5.53,5.53,0,0,0-.56-1.85A7.57,7.57,0,0,0,92.4,22a11.27,11.27,0,0,0-1.56-1.43A19.63,19.63,0,0,0,89,19.31a55.59,55.59,0,0,0-1.4,6.44,45.13,45.13,0,0,0-.52,5.72c-.91-.26-1.71-.51-2.41-.76s-1.16-.4-1.67-.61-.78-.37-.8-.47a19.16,19.16,0,0,1,.09-5.93A48.57,48.57,0,0,1,83.86,17c-1.11-.4-2-.72-2.82-.95a6.92,6.92,0,0,1-1.31-.46c-.14-.1-.15-.23,0-.38a2,2,0,0,1,.57-.44,8.86,8.86,0,0,1,1-.42c.37-.14.74-.26,1.1-.36s.69-.18,1-.24A2.1,2.1,0,0,1,84,13.68Z"/><path class="cls-1" d="M108.74,12.54c.42.1.88.23,1.37.39a13.5,13.5,0,0,1,1.34.51,6.57,6.57,0,0,1,1,.53c.25.17.34.29.26.37a8.09,8.09,0,0,0-1.22,1.76,18.52,18.52,0,0,0-1,2.16,4.32,4.32,0,0,0,0,3,2.7,2.7,0,0,0,1.73,1.46,15.79,15.79,0,0,0,.64-2.3,20.87,20.87,0,0,0,.33-2.36,19.44,19.44,0,0,0,.06-2.11,6.41,6.41,0,0,0-.21-1.57c0-.1,0-.14.25-.12a3.7,3.7,0,0,1,.8.2,9.61,9.61,0,0,1,1.07.45,6.62,6.62,0,0,1,1.07.65,1.75,1.75,0,0,1,.4.69,7.91,7.91,0,0,1,.35,1.28c.1.51.17,1.08.23,1.71a18.42,18.42,0,0,1,0,2,9.06,9.06,0,0,0,1.13-1.18,11.86,11.86,0,0,0,1-1.5l2.65,1A9.56,9.56,0,0,1,119.68,23a7.29,7.29,0,0,1-2.93,1.56A8.47,8.47,0,0,1,116,26.2,6.7,6.7,0,0,1,115,27.62a5.72,5.72,0,0,1-1.46,1.05,6.58,6.58,0,0,1-1.88.6,3,3,0,0,1-1.29-.12,9.35,9.35,0,0,1-1.58-.62,18.74,18.74,0,0,1-1.67-.93,18,18,0,0,1-1.54-1.07,3.28,3.28,0,0,1-1.23-2.06,8.65,8.65,0,0,1,0-2.93,17.77,17.77,0,0,1,.79-3.24,21.48,21.48,0,0,1,1.23-3,11.25,11.25,0,0,1,1.35-2.1C108.1,12.71,108.46,12.48,108.74,12.54ZM109,26.47a2.39,2.39,0,0,0,1.57-.74,6,6,0,0,0,1.2-1.73,8.43,8.43,0,0,1-1.28-.75,7.28,7.28,0,0,1-1.06-.93c-.12.6-.23,1.16-.31,1.68s-.13,1-.16,1.36a7.3,7.3,0,0,0,0,.87C109,26.43,109,26.51,109,26.47Z"/><path class="cls-1" d="M129.69,12.3c1,.24,1.93.47,2.74.69.34.1.66.2,1,.28l.82.25a3,3,0,0,1,.56.21c.13.07.18.11.17.13a5.51,5.51,0,0,0-.91,1.55c-.32.73-.63,1.56-1,2.48s-.61,1.89-.9,2.88-.54,1.89-.75,2.69-.37,1.46-.47,2-.13.75-.09.71a5.77,5.77,0,0,0,.48-.68c.24-.37.52-.81.83-1.32s.64-1.05,1-1.63l.95-1.58.72-1.18c.19-.32.31-.47.35-.47a3.2,3.2,0,0,1,.42.07l.8.19a7.79,7.79,0,0,1,.81.24,1.06,1.06,0,0,1,.46.25c0,.06-.06.33-.3.8s-.55,1.05-.95,1.73-.83,1.41-1.32,2.18-1,1.5-1.44,2.17-.9,1.23-1.27,1.67-.62.67-.77.69a3.19,3.19,0,0,1-1-.14,9.14,9.14,0,0,1-1.53-.51,7.71,7.71,0,0,1-1.55-.88,3.16,3.16,0,0,1-1-1.24,3.88,3.88,0,0,1-.21-1.11c-.32.5-.64,1-1,1.44s-.61.88-.88,1.24a9.53,9.53,0,0,1-.71.85,1.16,1.16,0,0,1-.45.35,3.19,3.19,0,0,1-1-.14,9.36,9.36,0,0,1-1.52-.51,7.71,7.71,0,0,1-1.55-.88,3.16,3.16,0,0,1-1-1.24,4.52,4.52,0,0,1-.18-1.83,27,27,0,0,1,.3-2.82c.16-1,.37-2.1.62-3.2s.52-2.12.8-3a18.66,18.66,0,0,1,.84-2.3c.28-.62.52-1,.72-1,1,.24,1.94.47,2.74.69l1,.28.83.25a2.9,2.9,0,0,1,.55.21c.13.07.19.11.17.13a5.78,5.78,0,0,0-.9,1.55c-.32.73-.64,1.56-1,2.48s-.61,1.89-.9,2.88-.55,1.89-.76,2.69-.36,1.46-.46,2-.13.75-.09.71a7.22,7.22,0,0,0,.78-1c.4-.59.84-1.26,1.32-2l1.43-2.2,1.07-1.62c.18-.86.39-1.7.62-2.51s.45-1.54.68-2.19a10.33,10.33,0,0,1,.66-1.58C129.34,12.59,129.53,12.36,129.69,12.3Z"/><path class="cls-1" d="M143.64,9.44q.5.33,1.05.75a10.87,10.87,0,0,1,1,.83,3.79,3.79,0,0,1,.62.74c.13.22.12.39,0,.51a6.37,6.37,0,0,0-1.91,2.27,8.62,8.62,0,0,0-.8,2.62,10.07,10.07,0,0,0,0,2.63,19.46,19.46,0,0,0,.43,2.35,8.6,8.6,0,0,0,1.64-1.39,10.2,10.2,0,0,0,1.46-2l2.59,1A10.09,10.09,0,0,1,147.44,23a7.35,7.35,0,0,1-2.67,1.61.09.09,0,0,0,0,.06,2.52,2.52,0,0,1-.17,2.21A4.5,4.5,0,0,1,143,28.43a6.43,6.43,0,0,1-2.21.79,3.75,3.75,0,0,1-1.92-.07,7.47,7.47,0,0,1-3.13-2.06,6.33,6.33,0,0,1-1.42-2.72,7,7,0,0,1,0-2.92,8.93,8.93,0,0,1,.93-2.65,6.3,6.3,0,0,1,1.52-1.88,2.49,2.49,0,0,1,1.75-.65,11.23,11.23,0,0,1,.39-2.65,10.54,10.54,0,0,1,.76-2,7.41,7.41,0,0,1,.94-1.4,7.23,7.23,0,0,1,.92-.92,6.41,6.41,0,0,1,1-.64C142.91,9,143.31,9.22,143.64,9.44Zm-5.25,17a.38.38,0,0,0,.42.21.75.75,0,0,0,.43-.34,2.37,2.37,0,0,0,.32-.82,4.59,4.59,0,0,0,.09-1.22,8.46,8.46,0,0,1-1.9-1.11,15.86,15.86,0,0,0,.23,2.09A2.73,2.73,0,0,0,138.39,26.47Zm.9-3.79a22.35,22.35,0,0,1-.6-2.84c-.12-.88-.2-1.69-.24-2.46a16.39,16.39,0,0,0-.61,2.77,3.52,3.52,0,0,0,.44,1.55A2.5,2.5,0,0,0,139.29,22.68Z"/><path class="cls-1" d="M153,12.21a2.67,2.67,0,0,1,1.16,0,5.47,5.47,0,0,1,1.37.48,10.42,10.42,0,0,1,1.37.83,9.32,9.32,0,0,1,1.19,1,5.25,5.25,0,0,1,.81,1,1.51,1.51,0,0,1,.24,1,4.29,4.29,0,0,1-.59,1.51,9.27,9.27,0,0,1-1.15,1.53A19.73,19.73,0,0,1,155.9,21a20.9,20.9,0,0,1-1.71,1.34c-.59.42-1.15.78-1.69,1.1a14.59,14.59,0,0,1-1.41.75,6.33,6.33,0,0,0,.33,1.73,2.87,2.87,0,0,0,.87,1.28c.16.06.41,0,.74-.21a7.34,7.34,0,0,0,1.14-.9c.43-.4.9-.88,1.4-1.44s1-1.17,1.52-1.81,1-1.31,1.49-2,.92-1.38,1.32-2.06l2.56,1A33.71,33.71,0,0,1,159,24.91a21,21,0,0,1-1.7,1.85,12,12,0,0,1-1.93,1.53,9.58,9.58,0,0,1-2.06,1,4.55,4.55,0,0,1-2.13.21,3.26,3.26,0,0,1-1.49-.57,7.05,7.05,0,0,1-1.31-1.14,10.8,10.8,0,0,1-1.09-1.43,9.24,9.24,0,0,1-.75-1.46,7.54,7.54,0,0,1-.43-3.69,11.24,11.24,0,0,1,1.14-3.82,11.59,11.59,0,0,1,2.42-3.24A8.21,8.21,0,0,1,153,12.21Zm2.65,2.25a2.3,2.3,0,0,0-1.52.82,8.6,8.6,0,0,0-1.41,2,14.54,14.54,0,0,0-1.1,2.69,13.93,13.93,0,0,0-.57,2.89,24.05,24.05,0,0,0,1.68-1.81,18.59,18.59,0,0,0,1.64-2.21,10.86,10.86,0,0,0,1.13-2.3A3.61,3.61,0,0,0,155.69,14.46Z"/><path class="cls-2" d="M11.09.28a6.84,6.84,0,0,1,2.74,1A15.54,15.54,0,0,1,16.14,3a20.13,20.13,0,0,1,1.73,1.79,12.29,12.29,0,0,0,1,1.08c.14.14.19.47.15,1a9.5,9.5,0,0,1-.36,1.82A18.87,18.87,0,0,1,17.8,11a15.9,15.9,0,0,1-1.3,2.4,13.09,13.09,0,0,1-1.68,2.07,6.21,6.21,0,0,1-2.05,1.39c0-.12.05-.49.14-1.1s.2-1.35.33-2.21.26-1.79.4-2.77S13.9,8.85,14,8s.14-1.57.15-2.16-.05-.93-.19-1-.68,0-1.31.57a14.88,14.88,0,0,0-2.13,2.29,30.46,30.46,0,0,0-2.36,3.58,24.81,24.81,0,0,0-2,4.39,3,3,0,0,0,1,1.46,9,9,0,0,0,1.48,1c.52.28,1,.53,1.52.74a3.48,3.48,0,0,1,1.07.65c-.42.62-.87,1.21-1.34,1.79S9,22.42,8.56,23a11.07,11.07,0,0,0-1,1.55,2.83,2.83,0,0,0-.38,1.42,2,2,0,0,0,.57,1.27,4.82,4.82,0,0,0,1.85,1.13,4.15,4.15,0,0,0,1.67-.81,15.34,15.34,0,0,0,1.94-1.71,23.41,23.41,0,0,0,1.94-2.28c.64-.83,1.21-1.65,1.73-2.45.35-.54.66-1.06.95-1.55s.54-.92.74-1.28.35-.65.45-.86.14-.31.12-.31l2.56,1-.6,1.11c-.2.35-.43.75-.68,1.22s-.55,1-.89,1.52a22.21,22.21,0,0,1-1.43,2.15c-.55.76-1.14,1.49-1.76,2.22s-1.26,1.41-1.91,2.07a24.3,24.3,0,0,1-1.88,1.75,12.19,12.19,0,0,1-1.68,1.2,3.22,3.22,0,0,1-1.3.48,5.06,5.06,0,0,1-2.42-.54,16.45,16.45,0,0,1-2.44-1.41,20.22,20.22,0,0,1-2-1.63A11.11,11.11,0,0,1,1.46,27a2.25,2.25,0,0,1-.59-1.76,4.37,4.37,0,0,1,.74-1.75,17.94,17.94,0,0,1,1.47-1.85,25.27,25.27,0,0,0,1.69-2.07,4.75,4.75,0,0,0-1-.65,8.64,8.64,0,0,1-1.22-.74,8,8,0,0,1-1.25-1.13A7.24,7.24,0,0,1,.13,15.23a26.3,26.3,0,0,1,1.34-3.89,28.92,28.92,0,0,1,1.84-3.6A29.35,29.35,0,0,1,5.43,4.65a25.36,25.36,0,0,1,2.15-2.4,9.07,9.07,0,0,1,2-1.52A2.79,2.79,0,0,1,11.09.28Z"/><path class="cls-2" d="M42.87,22.7c-.2.84-.36,1.52-.47,2s-.13.74,0,.7a6.15,6.15,0,0,0,.49-.67c.24-.37.51-.82.82-1.33l1-1.62,1-1.58L46.31,19c.19-.31.31-.47.35-.47l.4.08.79.18a7.79,7.79,0,0,1,.81.24,1.47,1.47,0,0,1,.5.26c0,.06-.06.32-.31.79s-.56,1.05-1,1.73S47,23.26,46.55,24s-1,1.49-1.43,2.16a19.54,19.54,0,0,1-1.25,1.67c-.37.44-.62.67-.76.69a4.09,4.09,0,0,1-1.06-.13,11.77,11.77,0,0,1-1.7-.51A9.78,9.78,0,0,1,38.58,27a3.32,3.32,0,0,1-1.22-1.23A3.78,3.78,0,0,1,37,24.2a12.82,12.82,0,0,1,.17-2.15,20.63,20.63,0,0,1,.51-2.35c.22-.79.45-1.53.69-2.23s.48-1.29.71-1.8a5.77,5.77,0,0,1,.56-1,11.72,11.72,0,0,0-2.71,3,28.79,28.79,0,0,0-2,3.66,38,38,0,0,0-1.46,3.61c-.41,1.17-.75,2.11-1,2.83l-.21,1c0,.07-.13.07-.33,0a6.13,6.13,0,0,1-.77-.22c-.31-.11-.64-.25-1-.41s-.69-.32-1-.49a6.42,6.42,0,0,1-.84-.52,1.94,1.94,0,0,1-.48-.43,3.32,3.32,0,0,1-.38-1.43,8.54,8.54,0,0,1,.11-1.78A14.6,14.6,0,0,1,28,21.49q.3-1,.66-1.95a41,41,0,0,1,2.14-4.67,11.1,11.1,0,0,0-3.12,2.51,18.69,18.69,0,0,0-2.27,3.28,22.5,22.5,0,0,0-1.5,3.43A24.48,24.48,0,0,0,23.09,27c0,.28,0,.57,0,.86s0,.57,0,.86c-.88-.25-1.67-.48-2.37-.7s-1.16-.39-1.66-.58-.77-.35-.81-.47a12.76,12.76,0,0,1-.51-3.34A18.64,18.64,0,0,1,18,20.38a21.78,21.78,0,0,1,.71-3c.3-1,.61-1.83.93-2.6a19.82,19.82,0,0,1,.91-2c.28-.53.48-.9.6-1.1s.24-.13.54-.09a8.16,8.16,0,0,1,1.05.23c.4.11.83.25,1.28.42s.86.34,1.24.51a5.45,5.45,0,0,1,.87.48c.21.15.28.26.22.32a9.79,9.79,0,0,0-1,1.88,22.22,22.22,0,0,0-1.28,3.71,31.22,31.22,0,0,1,2.15-2.58,34,34,0,0,1,2.41-2.4,25,25,0,0,1,2.13-1.74,3,3,0,0,1,1.34-.68,3.74,3.74,0,0,1,1.3.32,12.79,12.79,0,0,1,1.49.72,8.12,8.12,0,0,1,1.15.78c.31.25.41.43.31.53a4.5,4.5,0,0,0-.91,1.49,22.1,22.1,0,0,0-.81,2.36c.56-.78,1.16-1.54,1.79-2.29s1.24-1.4,1.84-2a16,16,0,0,1,1.58-1.4,2.11,2.11,0,0,1,1-.53,4.54,4.54,0,0,1,1.4.32,16.22,16.22,0,0,1,1.71.72,11.15,11.15,0,0,1,1.39.78c.37.25.5.43.4.53a4.36,4.36,0,0,0-.81,1.31,19.42,19.42,0,0,0-.75,2c-.24.78-.47,1.62-.69,2.53S43.07,21.79,42.87,22.7Z"/><path class="cls-2" d="M54.48,12.92l-.34.63c-.11.2-.22.41-.32.63.26-.26.55-.53.87-.8s.65-.51,1-.74a5.24,5.24,0,0,1,1-.52,2.23,2.23,0,0,1,1-.17,6,6,0,0,1,2.11.59,4.51,4.51,0,0,1,1.26,1,3.11,3.11,0,0,1,.63,1l.25.7a4.52,4.52,0,0,1-.06,1.42,20,20,0,0,1-.53,2.28c-.25.87-.57,1.78-1,2.74A25.84,25.84,0,0,1,59,24.4a14.51,14.51,0,0,1-1.55,2.33,5.5,5.5,0,0,1-1.74,1.47,3.76,3.76,0,0,1-2,.51A4.74,4.74,0,0,1,52,28.2a4.63,4.63,0,0,1-1-.69,5.52,5.52,0,0,1-.77-.84C50.1,28,50,29.26,50,30.52s-.06,2.54-.1,3.82c-.89-.24-1.68-.47-2.38-.69s-1.15-.37-1.65-.57-.77-.35-.79-.45a26.94,26.94,0,0,1-.37-5.25,30.59,30.59,0,0,1,.6-5.18,36.21,36.21,0,0,1,1.5-5.28,55.7,55.7,0,0,1,2.4-5.57l1.41.33,1.31.33q.71.18,1.29.36c.39.12.72.23,1,.33S54.52,12.88,54.48,12.92ZM56.29,14c-.16-.08-.42,0-.77.21a7.73,7.73,0,0,0-1.1.86,14.86,14.86,0,0,0-1.11,1.13q-.54.6-.84,1a31.24,31.24,0,0,0-1.18,3.59q-.45,1.74-.72,3.42c.1.22.21.48.33.77a8,8,0,0,0,.41.83,5.51,5.51,0,0,0,.46.69,1.14,1.14,0,0,0,.49.39c.12,0,.34-.23.67-.81A22.73,22.73,0,0,0,54,23.81q.57-1.35,1.14-3c.39-1.09.71-2.12,1-3.08a14.4,14.4,0,0,0,.48-2.5Q56.68,14.18,56.29,14Zm-4.06,3.64v0a.9.9,0,0,1,0-.15A.27.27,0,0,0,52.23,17.61Z"/><path class="cls-2" d="M65,11.59c1,.24,1.94.47,2.74.69l1,.29.83.24a3.36,3.36,0,0,1,.56.21c.13.07.18.12.16.14a5.62,5.62,0,0,0-.9,1.55c-.32.73-.64,1.56-.95,2.48s-.61,1.88-.9,2.87-.54,1.89-.75,2.7-.37,1.46-.47,2-.13.74-.09.7a5.32,5.32,0,0,0,.48-.67c.24-.37.52-.82.83-1.33l1-1.62.94-1.58c.29-.48.53-.88.73-1.19s.3-.47.34-.47l.42.08.8.18a7.79,7.79,0,0,1,.81.24,1.11,1.11,0,0,1,.47.26c0,.06-.06.32-.3.79s-.56,1.05-1,1.73-.83,1.41-1.32,2.19-1,1.49-1.43,2.16-.88,1.23-1.25,1.67-.63.67-.77.69a3.42,3.42,0,0,1-1-.13,9.36,9.36,0,0,1-1.52-.51A7.76,7.76,0,0,1,62.89,27a3.15,3.15,0,0,1-1-1.23A4.57,4.57,0,0,1,61.67,24,24.53,24.53,0,0,1,62,21.15c.16-1,.36-2.11.61-3.21s.52-2.12.8-3a18.66,18.66,0,0,1,.84-2.3C64.51,12,64.75,11.65,65,11.59Zm2.29-6.86c.1-.22.4-.31.89-.26a9.23,9.23,0,0,1,1.58.32c.66.2,1.39.46,2.2.78L69,10a4,4,0,0,1-1,.06,2.49,2.49,0,0,1-.78-.2,1.3,1.3,0,0,1-.63-.62,2.92,2.92,0,0,1-.29-1.46,6.38,6.38,0,0,1,.26-1.46A10.19,10.19,0,0,1,67.24,4.73Z"/><path class="cls-2" d="M84.06,13l.41.13c.15.05.32.12.5.2.58-1.61,1.2-3.17,1.86-4.7s1.32-3,2-4.36A20.6,20.6,0,0,0,85.46,6a18.39,18.39,0,0,0-2.25,1.77,21.4,21.4,0,0,0-1.7,1.78c-.51.59-1,1.19-1.6,1.79q-1-.9-1.71-1.68c-.43-.45-.8-.86-1.12-1.25s-.45-.64-.39-.74a6.38,6.38,0,0,1,1.58-1.91A18.58,18.58,0,0,1,80.75,4a29.78,29.78,0,0,1,2.91-1.55c1-.47,2-.88,2.87-1.22S88.22.6,88.89.41A6.48,6.48,0,0,1,90.26.12a2.1,2.1,0,0,1,1,.52c.45.34.92.73,1.4,1.17A15.88,15.88,0,0,1,94,3.13a3.38,3.38,0,0,1,.67,1,1.07,1.07,0,0,1,0,.48,2.75,2.75,0,0,1-.18.63c-.09.22-.19.45-.3.68s-.23.44-.35.65a52.3,52.3,0,0,0-2.24,4.83q-1,2.42-1.76,4.83c1,.72,2,1.47,3,2.24A15.89,15.89,0,0,1,95,20.56c.38-1.61.86-3.25,1.43-4.94s1.19-3.34,1.85-5,1.34-3.22,2-4.75,1.38-2.95,2-4.23c.62.12,1.16.24,1.63.35l1.5.34c.54.12,1,.24,1.49.36a10.46,10.46,0,0,1,1.1.35c.28.11.4.19.36.23q-1.14,2.1-2.21,4.51c-.71,1.6-1.39,3.25-2,4.93s-1.23,3.39-1.76,5.09-1,3.35-1.4,4.94-.73,3.08-1,4.48A28.75,28.75,0,0,0,99.59,31l-2.65-.72c-.66-.2-1.27-.4-1.82-.6s-.83-.36-.85-.48a12.91,12.91,0,0,1-.2-2.11,16.15,16.15,0,0,1,.14-2.35,5.77,5.77,0,0,0-.56-1.85,7.51,7.51,0,0,0-1.13-1.62A10.68,10.68,0,0,0,91,19.84a21.14,21.14,0,0,0-1.84-1.24A56,56,0,0,0,87.72,25a45.41,45.41,0,0,0-.53,5.72q-1.35-.39-2.4-.75c-.61-.2-1.16-.41-1.67-.62s-.78-.36-.8-.47A19.1,19.1,0,0,1,82.41,23,49.28,49.28,0,0,1,84,16.29c-1.1-.41-2-.72-2.81-.95a6.59,6.59,0,0,1-1.31-.47c-.14-.1-.15-.22,0-.37a1.71,1.71,0,0,1,.57-.44,8.05,8.05,0,0,1,1-.42c.37-.14.74-.26,1.1-.36s.69-.18,1-.24A2,2,0,0,1,84.06,13Z"/><path class="cls-2" d="M108.86,11.83c.42.1.88.23,1.37.39a13.5,13.5,0,0,1,1.34.51,7.64,7.64,0,0,1,1,.53c.25.17.33.3.25.38a8.19,8.19,0,0,0-1.22,1.76,18.33,18.33,0,0,0-.94,2.15,4.26,4.26,0,0,0,0,3A2.65,2.65,0,0,0,112.41,22a15.78,15.78,0,0,0,.63-2.3,20.56,20.56,0,0,0,.33-2.36,17.14,17.14,0,0,0,.06-2.11,5.82,5.82,0,0,0-.21-1.56c0-.1,0-.14.26-.12a3.59,3.59,0,0,1,.8.19,9.61,9.61,0,0,1,1.07.45,7.3,7.3,0,0,1,1.06.65,1.75,1.75,0,0,1,.41.69,7.91,7.91,0,0,1,.35,1.28,15.44,15.44,0,0,1,.22,1.72,18.18,18.18,0,0,1,0,2,9,9,0,0,0,1.13-1.17,12.75,12.75,0,0,0,1-1.51l2.65,1a9.45,9.45,0,0,1-2.42,3.43,7.31,7.31,0,0,1-2.93,1.57,8.64,8.64,0,0,1-.71,1.65,6.23,6.23,0,0,1-1.07,1.42A5.72,5.72,0,0,1,113.63,28a6.58,6.58,0,0,1-1.88.6,3,3,0,0,1-1.29-.12,9,9,0,0,1-1.58-.61,15.62,15.62,0,0,1-1.67-.94,16.5,16.5,0,0,1-1.54-1.06,3.3,3.3,0,0,1-1.23-2.07,8.65,8.65,0,0,1,0-2.93,18.13,18.13,0,0,1,.78-3.24,22.62,22.62,0,0,1,1.24-2.94,11,11,0,0,1,1.35-2.11C108.21,12,108.58,11.77,108.86,11.83Zm.27,13.94A2.46,2.46,0,0,0,110.7,25a6.16,6.16,0,0,0,1.2-1.73,7.72,7.72,0,0,1-1.28-.76,7.36,7.36,0,0,1-1.07-.93c-.12.6-.22,1.17-.3,1.69s-.13,1-.16,1.35a7.3,7.3,0,0,0,0,.87C109.07,25.73,109.09,25.81,109.13,25.77Z"/><path class="cls-2" d="M129.81,11.59q1.53.36,2.73.69l1,.29.83.24a3,3,0,0,1,.56.21c.13.07.18.12.16.14a5.62,5.62,0,0,0-.9,1.55c-.32.73-.64,1.56-.95,2.48s-.61,1.88-.9,2.87-.54,1.89-.75,2.7-.37,1.46-.47,2-.13.74-.09.7a5.32,5.32,0,0,0,.48-.67c.24-.37.52-.82.83-1.33l1-1.62c.34-.57.65-1.1.95-1.58L135,19c.19-.31.3-.47.34-.47l.42.08.8.18a7.79,7.79,0,0,1,.81.24,1.11,1.11,0,0,1,.47.26c0,.06-.06.32-.3.79s-.56,1.05-.95,1.73-.83,1.41-1.32,2.19-1,1.49-1.45,2.16-.89,1.23-1.26,1.67-.63.67-.77.69a3.42,3.42,0,0,1-1-.13,9.54,9.54,0,0,1-1.54-.51,8.05,8.05,0,0,1-1.55-.89,3,3,0,0,1-1-1.23,3.7,3.7,0,0,1-.21-1.12c-.33.5-.65,1-1,1.45s-.61.87-.89,1.23a10,10,0,0,1-.7.86,1.1,1.1,0,0,1-.45.34,3.42,3.42,0,0,1-1-.13,9.36,9.36,0,0,1-1.52-.51,7.76,7.76,0,0,1-1.55-.89,3.07,3.07,0,0,1-1-1.23,4.57,4.57,0,0,1-.18-1.84,26.79,26.79,0,0,1,.3-2.81c.16-1,.37-2.11.62-3.21s.51-2.12.8-3a18.66,18.66,0,0,1,.84-2.3c.28-.61.52-.95.72-1,1,.24,1.94.47,2.74.69l1,.29.82.24a3,3,0,0,1,.56.21c.13.07.19.12.17.14a5.6,5.6,0,0,0-.91,1.55c-.32.73-.63,1.56-.94,2.48s-.62,1.88-.91,2.87-.54,1.89-.75,2.7-.37,1.46-.47,2-.13.74-.09.7a7.38,7.38,0,0,0,.79-1c.4-.6.84-1.26,1.32-2l1.43-2.19,1.07-1.63c.18-.86.38-1.7.61-2.51s.46-1.54.68-2.18a11,11,0,0,1,.66-1.58C129.45,11.89,129.64,11.65,129.81,11.59Z"/><path class="cls-2" d="M143.75,8.73c.33.22.69.47,1.06.75s.69.56,1,.83a3.63,3.63,0,0,1,.61.74c.13.22.13.39,0,.51a6.27,6.27,0,0,0-1.91,2.27,8.51,8.51,0,0,0-.8,2.62,10.08,10.08,0,0,0,0,2.63,19,19,0,0,0,.44,2.35,8.91,8.91,0,0,0,1.64-1.38,10.28,10.28,0,0,0,1.46-2l2.59,1a10,10,0,0,1-2.23,3.24,7.17,7.17,0,0,1-2.68,1.61.09.09,0,0,0,0,.06,2.52,2.52,0,0,1-.16,2.21,4.58,4.58,0,0,1-1.63,1.55,6.53,6.53,0,0,1-2.21.8,3.9,3.9,0,0,1-1.93-.08,7.51,7.51,0,0,1-3.13-2.06,6.41,6.41,0,0,1-1.41-2.72,7,7,0,0,1-.05-2.92,9.34,9.34,0,0,1,.94-2.65,6.3,6.3,0,0,1,1.52-1.88,2.49,2.49,0,0,1,1.74-.65,11.14,11.14,0,0,1,.39-2.64,11.38,11.38,0,0,1,.77-2,7.73,7.73,0,0,1,.93-1.4,8.61,8.61,0,0,1,.92-.91,6.06,6.06,0,0,1,1-.65C143,8.26,143.42,8.51,143.75,8.73Zm-5.25,17a.38.38,0,0,0,.42.21.79.79,0,0,0,.44-.35,2.39,2.39,0,0,0,.32-.81,4.63,4.63,0,0,0,.09-1.22,8.25,8.25,0,0,1-1.9-1.11,15.86,15.86,0,0,0,.23,2.09A3,3,0,0,0,138.5,25.77Zm.91-3.8a20.86,20.86,0,0,1-.61-2.84c-.12-.87-.2-1.69-.24-2.45a16.92,16.92,0,0,0-.6,2.77A3.56,3.56,0,0,0,138.4,21,2.42,2.42,0,0,0,139.41,22Z"/><path class="cls-2" d="M153.16,11.5a2.69,2.69,0,0,1,1.16,0,5.47,5.47,0,0,1,1.37.48,11,11,0,0,1,1.37.82,11.19,11.19,0,0,1,1.19,1,5,5,0,0,1,.81,1,1.48,1.48,0,0,1,.24.94,4.34,4.34,0,0,1-.59,1.51,9.35,9.35,0,0,1-1.16,1.53A16.59,16.59,0,0,1,156,20.32c-.56.48-1.14.93-1.72,1.34s-1.14.78-1.68,1.1a14.61,14.61,0,0,1-1.42.75,6.41,6.41,0,0,0,.33,1.73,2.87,2.87,0,0,0,.88,1.28c.16.06.4,0,.73-.21a6.93,6.93,0,0,0,1.15-.91c.43-.4.9-.88,1.4-1.44s1-1.16,1.52-1.81,1-1.31,1.49-2,.92-1.38,1.32-2.06l2.56,1a33.22,33.22,0,0,1-3.49,5.12,21,21,0,0,1-1.7,1.85,12.53,12.53,0,0,1-1.93,1.54,9.53,9.53,0,0,1-2.06,1,4.45,4.45,0,0,1-2.14.21,3.19,3.19,0,0,1-1.49-.57,7.76,7.76,0,0,1-1.31-1.14,10.12,10.12,0,0,1-1.08-1.43,8.83,8.83,0,0,1-.75-1.46,7.63,7.63,0,0,1-.44-3.69,11.1,11.1,0,0,1,1.15-3.82,11.35,11.35,0,0,1,2.42-3.23A8.13,8.13,0,0,1,153.16,11.5Zm2.65,2.26a2.32,2.32,0,0,0-1.52.81,8.62,8.62,0,0,0-1.42,2,15.84,15.84,0,0,0-1.1,2.7,13.84,13.84,0,0,0-.57,2.88c.52-.5,1.09-1.1,1.69-1.8a19.44,19.44,0,0,0,1.64-2.21,10.93,10.93,0,0,0,1.13-2.31A3.58,3.58,0,0,0,155.81,13.76Z"/></svg>