<?xml version="1.0" encoding="UTF-8"?><svg id="a" xmlns="http://www.w3.org/2000/svg" xmlns:xlink="http://www.w3.org/1999/xlink" viewBox="0 0 1094.29 248.24"><defs><style>.ab{fill:url(#t);}.ac{fill:#fff;}.ad{fill:url(#r);}.ae{fill:url(#y);}.af{fill:url(#l);}.ag{fill:url(#c);}.ah{fill:url(#u);}.ai{fill:url(#v);}.aj{fill:url(#a`);}.ak{fill:url(#m);}.al{fill:url(#f);}.am{fill:url(#p);}.an{fill:url(#g);}.ao{fill:url(#b);}.ap{fill:url(#i);}.aq{fill:url(#h);}.ar{fill:url(#d);}.as{fill:url(#e);}.at{fill:url(#x);}.au{fill:url(#aa);}.av{fill:url(#s);}.aw{fill:url(#n);}.ax{fill:url(#w);}.ay{fill:url(#j);}.b`{fill:url(#o);}.ba{fill:#f1f2f2;font-family:ROOSTERPERSONALUSE, ROOSTER PERSONAL USE;font-size:73.98px;}.bb{fill:url(#q);}.bc{fill:url(#k);}.bd{fill:#231f20;}</style><linearGradient id="b" x1="675.18" y1="235.39" x2="675.18" y2="185.25" gradientTransform="matrix(1, 0, 0, 1, 0, 0)" gradientUnits="userSpaceOnUse"><stop offset="0" stop-color="#4f5927"/><stop offset="1" stop-color="#f1f2f2"/></linearGradient><linearGradient id="c" x1="715.27" y1="229.02" x2="715.27" y2="200.64" xlink:href="#b"/><linearGradient id="d" x1="736.52" y1="239.84" x2="736.52" y2="196.72" xlink:href="#b"/><linearGradient id="e" x1="762.34" y1="236.45" x2="762.34" y2="192.72" xlink:href="#b"/><linearGradient id="f" x1="794.89" y1="231.05" x2="794.89" y2="188.03" xlink:href="#b"/><linearGradient id="g" x1="848.4" y1="212.2" x2="848.4" y2="159.96" xlink:href="#b"/><linearGradient id="h" x1="882.34" y1="203.74" x2="882.34" y2="173.92" xlink:href="#b"/><linearGradient id="i" x1="911.52" y1="199.2" x2="911.52" y2="158.08" xlink:href="#b"/><linearGradient id="j" x1="931.87" y1="195.71" x2="931.87" y2="160.36" xlink:href="#b"/><linearGradient id="k" x1="951.88" y1="194.45" x2="951.88" y2="166.42" xlink:href="#b"/><linearGradient id="l" x1="980.31" y1="205.37" x2="980.31" y2="165.13" xlink:href="#b"/><linearGradient id="m" x1="1080.14" y1="222.42" x2="1080.14" y2="212.24" xlink:href="#b"/><linearGradient id="n" x1="1043.99" y1="210.31" x2="1043.99" y2="179.76" xlink:href="#b"/><linearGradient id="o" x1="1017.36" y1="201.6" x2="1017.36" y2="172.13" xlink:href="#b"/><linearGradient id="p" x1="1070.69" y1="201.56" x2="1070.69" y2="172.19" xlink:href="#b"/><linearGradient id="q" x1="1043.99" y1="238.88" x2="1043.99" y2="213.98" xlink:href="#b"/><linearGradient id="r" x1="1018.16" y1="217.09" x2="1018.16" y2="198.3" xlink:href="#b"/><linearGradient id="s" x1="1069.89" y1="217.09" x2="1069.89" y2="198.35" xlink:href="#b"/><linearGradient id="t" x1="1043.95" y1="182.28" x2="1043.95" y2="161.04" xlink:href="#b"/><linearGradient id="u" x1="1007.73" y1="222.41" x2="1007.73" y2="212.19" xlink:href="#b"/><linearGradient id="v" x1="1025.74" y1="231.73" x2="1025.74" y2="216.63" xlink:href="#b"/><linearGradient id="w" x1="1062.17" y1="231.6" x2="1062.17" y2="216.59" xlink:href="#b"/><linearGradient id="x" x1="1031.24" y1="214.07" x2="1031.24" y2="196.62" xlink:href="#b"/><linearGradient id="y" x1="1056.78" y1="214.07" x2="1056.78" y2="196.69" xlink:href="#b"/><linearGradient id="a`" x1="1031.64" y1="200.07" x2="1031.64" y2="178.52" xlink:href="#b"/><linearGradient id="aa" x1="1056.31" y1="199.95" x2="1056.31" y2="178.5" xlink:href="#b"/></defs><text class="ba" transform="translate(.44 62.88)"><tspan x="0" y="0">Happy Ending</tspan></text><g><path class="bd" d="M680.39,191.5c1.86-.3,3.22-.29,4.03,.09,.81,.39,1.25,.82,1.29,1.31,.25,.48,.31,.99,.19,1.54-.12,.55-.31,1.06-.55,1.52-.84,1.49-1.76,3.11-2.77,4.86-1.01,1.75-2.1,3.6-3.25,5.55-1.16,1.95-2.34,3.96-3.55,6.03-1.21,2.07-2.4,4.12-3.59,6.16,2.66-.49,5.35-.91,8.06-1.26,2.71-.35,5.7-.7,8.95-1.06,1.08-2.21,2.22-4.51,3.4-6.9,1.18-2.39,2.35-4.73,3.51-7,1.16-2.27,2.27-4.43,3.33-6.48,1.06-2.05,2.01-3.88,2.85-5.49,1.38-.03,2.49,.09,3.33,.37,.84,.28,1.46,.68,1.85,1.18,.39,.5,.59,1.06,.59,1.68s-.1,1.21-.3,1.77c-.79,2.05-1.7,4.36-2.74,6.9-1.04,2.54-2.13,5.18-3.29,7.91-1.16,2.73-2.33,5.45-3.51,8.17-1.18,2.72-2.32,5.32-3.4,7.78-1.08,2.46-2.07,4.72-2.96,6.76-.89,2.05-1.6,3.73-2.15,5.06-1.48-.08-2.84-.26-4.07-.54-1.23-.28-2.22-.71-2.96-1.3-.74-.59-1.17-1.36-1.29-2.32-.12-.95,.16-2.12,.85-3.5,1.98-3.98,2.97-5.98,4.96-9.98-3.26,.55-6.42,1.18-9.51,1.92-3.08,.73-6.13,1.49-9.14,2.28-2.07,3.45-3.97,6.58-5.7,9.38-1.73,2.8-3.08,5-4.07,6.61-1.48-.15-2.79-.4-3.92-.74-1.13-.34-2.01-.82-2.63-1.42-.62-.61-.89-1.39-.81-2.35,.07-.96,.6-2.12,1.59-3.47,.39-.55,.85-1.2,1.37-1.95,.52-.75,1.1-1.63,1.74-2.63-2.52,.71-4.93,1.36-7.25,1.96-2.32,.6-4.61,1.12-6.88,1.56,.35-1.04,.75-2,1.22-2.89,.47-.89,1.12-1.71,1.96-2.45,.84-.74,1.94-1.42,3.29-2.03,1.36-.61,3.11-1.17,5.22-1.64,1.27-.28,2.49-.55,3.63-.83,1.13-.28,2.27-.54,3.4-.77,1.38-2.12,2.84-4.37,4.36-6.75,1.53-2.38,3.06-4.75,4.59-7.09,1.53-2.34,3.04-4.62,4.55-6.83,1.5-2.21,2.92-4.24,4.25-6.1-3.26,.7-6.07,1.62-8.43,2.77-2.37,1.15-4.36,2.41-5.99,3.78-1.63,1.37-2.9,2.81-3.81,4.32-.91,1.51-1.55,2.98-1.92,4.43-.37,1.44-.51,2.82-.41,4.12,.1,1.3,.37,2.42,.81,3.34-2.52-.07-4.58-.45-6.18-1.14-1.6-.68-2.77-1.57-3.51-2.64-.74-1.07-1.05-2.27-.92-3.58,.12-1.31,.68-2.67,1.66-4.05,1.21-1.69,2.86-3.26,4.88-4.72,2.02-1.45,4.34-2.78,6.95-3.98,2.61-1.2,5.51-2.24,8.69-3.11,3.18-.88,6.59-1.55,10.1-2.11Z"/><path class="bd" d="M725.88,208.02c.08,1.14-.57,2.34-1.85,3.48,1.04,.02,1.53,.18,1.48,.48-.84,2.32-1.78,4.55-2.81,6.67-1.04,2.12-1.89,4.33-2.66,6.42-.64,1.73-.81,2.59-.37,2.49,.44-.1,1.26-.78,2.44-2.03s2.61-2.89,4.29-4.93c1.68-2.03,3.4-4.1,5.18-6.21,.05,.09,.14,.24,.26,.45,.12,.21,.2,.47,.22,.79,.02,.32-.04,.72-.19,1.21s-.47,1.01-.96,1.57c-1.38,1.61-2.6,3.03-3.66,4.28-1.06,1.24-2.07,2.37-3.03,3.37-.96,1.01-1.95,1.94-2.96,2.8-1.01,.86-2.13,1.76-3.37,2.69-.69,.52-1.41,.89-2.15,1.1-.74,.21-1.43,.28-2.07,.23-.64-.05-1.18-.23-1.63-.52-.44-.3-.72-.71-.74-1.18-.04-.75,.15-1.79,.44-3.01-1.53,1.45-3.16,2.77-4.88,3.96-1.73,1.19-3.25,1.85-4.59,1.98-1.28,.12-2.26-.04-2.92-.5-.67-.46-1.05-1.1-1.15-1.93-.15-1.31-.01-2.85,.41-4.59,.42-1.74,1.1-3.53,2.03-5.37,.94-1.84,2.08-3.66,3.44-5.48,1.36-1.81,2.87-3.46,4.55-4.94,1.68-1.48,3.49-2.71,5.44-3.7,1.95-.98,3.98-1.55,6.03-1.77,1.46-.16,2.79-.1,3.92,.23,1.13,.33,1.78,1.01,1.85,1.95Zm-10.8,5.57c1.58-.42,2.85-1.03,3.81-1.81,.96-.78,1.64-1.64,2.03-2.57,.1-.41,0-.8-.3-1.19s-.95-.3-1.92,.12c-.85,.37-1.83,1.03-2.81,2.02-.99,1-1.95,2.17-2.88,3.5-.94,1.34-1.83,2.76-2.66,4.28-.84,1.52-1.58,3-2.22,4.45-.64,1.45-1.15,2.76-1.52,3.93-.37,1.17-.55,2.08-.55,2.72,0,.49,.26,.66,.78,.51,.52-.15,1.12-.48,1.81-1,.69-.52,1.44-1.14,2.26-1.87,.81-.73,1.52-1.45,2.11-2.15,.69-1.75,1.44-3.54,2.26-5.36,.81-1.82,1.56-3.48,2.26-4.99-1.23,.04-2.05-.16-2.44-.61Z"/><path class="bd" d="M740.68,206.59c.41-.35,.62-.53,1.04-.88,2.42-2.01,5.02-3.28,7.77-3.77,1.86-.33,3.13,.11,3.77,1.3,.64,1.19,.79,2.78,.44,4.78-.35,2-1.07,4.23-2.18,6.68-1.11,2.46-2.45,4.79-4.03,6.99-1.58,2.2-3.3,4.09-5.18,5.65-1.88,1.57-3.76,2.52-5.55,2.72-1.21,.14-2.22-.15-2.96-.79-.74-.64-1.28-1.41-1.63-2.3-1.89,4.54-2.84,6.8-4.73,11.33-.54,1.4-1.04,2.51-1.48,3.33-.44,.82-.91,1.47-1.41,1.95-.49,.48-1.01,.8-1.55,.97-.54,.16-1.18,.29-1.92,.38-.89,.11-1.53-.09-1.92-.59-.39-.5-.39-1.29,0-2.37,.35-.97,.88-2.39,1.59-4.22,.72-1.84,1.55-3.88,2.52-6.15,.96-2.26,1.99-4.66,3.07-7.18,1.08-2.53,2.16-4.98,3.22-7.36,1.06-2.38,2.07-4.56,3.03-6.53,.96-1.98,1.76-3.57,2.4-4.79,.44-.75,1.06-1.3,1.85-1.65,.79-.35,1.57-.57,2.33-.65,.76-.08,1.42-.05,1.96,.1,.54,.15,.74,.35,.59,.62-.41,.97-.62,1.46-1.04,2.44Zm4.66-.95c-.29,.03-.49,.08-.59,.12-.1,.04-.19,.08-.26,.11-.07,.04-.16,.1-.26,.18-.1,.09-.27,.24-.52,.41-.37,.26-.74,.57-1.04,.96-.3,.39-.51,.79-.63,1.2-.12,.41-.1,.8,.07,1.17,.17,.37,.53,.64,1.07,.81-1.18,.41-2.11,.59-2.77,.53-.67-.06-1.12-.24-1.37-.55-1.81,4.27-2.71,6.41-4.51,10.67-.95,2.29-1.42,3.43-2.37,5.71-.2-.42-.32-.83-.37-1.25-.05-.41-.02-.84,0-1.22,.05-.83,.14-1.73,.41-2.53,.27-.8,.73-1.86,1.37-3.18,.65,.33,.98,.49,1.63,.82-.84,1.99-1.28,3.64-1.33,4.95-.05,1.31,.51,1.84,1.63,1.67,.62-.1,1.45-.68,2.44-1.77,.99-1.1,1.99-2.42,3-3.96,1.01-1.55,1.97-3.21,2.89-4.99,.91-1.78,1.63-3.41,2.15-4.89,.52-1.48,.75-2.7,.7-3.65-.05-.95-.52-1.42-1.33-1.33Z"/><path class="bd" d="M766.5,202.76c.41-.36,.62-.54,1.04-.9,2.42-2.06,5.02-3.37,7.77-3.9,1.86-.36,3.13,.06,3.77,1.24,.64,1.18,.79,2.77,.44,4.77-.35,2.01-1.07,4.24-2.18,6.72-1.11,2.47-2.45,4.82-4.03,7.05-1.58,2.23-3.3,4.14-5.18,5.74-1.88,1.6-3.76,2.59-5.55,2.83-1.21,.16-2.22-.1-2.96-.73-.74-.63-1.28-1.38-1.63-2.27-1.89,4.58-2.84,6.86-4.73,11.44-.54,1.41-1.04,2.53-1.48,3.36-.44,.83-.91,1.49-1.41,1.98-.49,.49-1.01,.83-1.55,1-.54,.18-1.18,.32-1.92,.43-.89,.13-1.53-.05-1.92-.54-.39-.49-.39-1.28,0-2.37,.35-.98,.88-2.41,1.59-4.26,.72-1.85,1.55-3.92,2.52-6.21,.96-2.28,1.99-4.7,3.07-7.25,1.08-2.55,2.16-5.03,3.22-7.43,1.06-2.4,2.07-4.6,3.03-6.6,.96-2,1.76-3.61,2.4-4.84,.44-.76,1.06-1.32,1.85-1.69,.79-.37,1.56-.6,2.33-.69,.76-.09,1.42-.07,1.96,.06,.54,.14,.74,.34,.59,.61-.41,.98-.62,1.47-1.04,2.46Zm4.66-1.03c-.29,.04-.49,.09-.59,.13-.1,.04-.19,.08-.26,.12-.07,.04-.16,.1-.26,.19-.1,.09-.27,.24-.52,.42-.37,.26-.74,.59-1.04,.98-.3,.39-.51,.8-.63,1.21-.12,.41-.1,.8,.07,1.17,.17,.37,.53,.63,1.07,.79-1.18,.44-2.11,.63-2.77,.59-.67-.04-1.12-.22-1.37-.53-1.81,4.31-2.71,6.46-4.51,10.76-.95,2.31-1.42,3.46-2.37,5.76-.2-.41-.32-.83-.37-1.24-.05-.41-.02-.84,0-1.22,.05-.83,.14-1.73,.41-2.54,.27-.81,.73-1.87,1.37-3.2,.65,.31,.98,.47,1.63,.79-.84,2-1.28,3.66-1.33,4.98-.05,1.32,.51,1.83,1.63,1.64,.62-.11,1.45-.7,2.44-1.82,.99-1.12,1.99-2.45,3-4.02,1.01-1.56,1.97-3.25,2.89-5.04,.91-1.8,1.63-3.44,2.15-4.93,.52-1.49,.75-2.71,.7-3.66-.05-.95-.52-1.41-1.33-1.3Z"/><path class="bd" d="M797.94,217.36c1.43-1.28,2.97-2.79,4.62-4.52,1.65-1.74,3.54-3.87,5.66-6.41,.64-.7,1.26-1.46,1.85-2.28,.59-.82,1.23-1.63,1.92-2.44,0,.05,.06,.17,.19,.38,.12,.2,.22,.47,.3,.8,.07,.33,.06,.74-.04,1.23-.1,.49-.42,1.05-.96,1.68-.47,.53-.71,.79-1.18,1.31-2.76,3.39-5.31,6.21-7.66,8.49-2.34,2.27-4.48,4.16-6.4,5.67-1.57,3.61-2.35,5.41-3.92,9.02-.99,1.79-2.16,3.15-3.51,4.07-1.36,.92-2.68,1.48-3.96,1.69-1.28,.21-2.42,.13-3.4-.25-.99-.38-1.64-.98-1.96-1.79-.32-.81-.2-1.78,.37-2.91,.57-1.13,1.81-2.34,3.74-3.65,1.81-1.16,2.71-1.74,4.51-2.89,.84-2.01,1.68-4.05,2.52-6.12,.84-2.06,1.7-4.13,2.59-6.21-.89,1.04-1.7,1.99-2.44,2.85-.74,.86-1.49,1.69-2.26,2.49-.77,.79-1.55,1.55-2.37,2.28-.81,.73-1.74,1.47-2.7,2.22-.69,.54-1.44,.94-2.26,1.15-.81,.21-1.55,.24-2.22,.1-.67-.14-1.2-.42-1.59-.85-.39-.43-.52-1.03-.37-1.79,.35-1.73,.85-3.55,1.52-5.46,.67-1.91,1.42-3.82,2.26-5.73,.84-1.91,1.75-3.84,2.74-5.78,.99-1.94,1.97-3.8,2.96-5.59,.44-.76,1.07-1.34,1.89-1.72,.81-.38,1.6-.61,2.37-.69,.76-.08,1.42-.05,1.96,.08,.54,.13,.76,.33,.67,.59-3.26,7.68-4.88,11.52-8.14,19.19-.44,1.16-.63,1.89-.55,2.2,.07,.31,.33,.32,.78,.02,.44-.3,1.05-.86,1.81-1.71,.76-.84,1.64-1.84,2.63-2.99,.99-1.15,2.05-2.41,3.18-3.79,1.13-1.37,2.56-2.83,3.4-4.2,.82-1.32,1.52-3.19,2.33-4.76,.81-1.57,1.69-3.15,2.63-4.74,.44-.77,1.06-1.34,1.85-1.72,.79-.38,1.57-.61,2.33-.69,.76-.08,1.42-.06,1.96,.07,.54,.13,.76,.33,.67,.59-4.11,9.41-6.17,14.11-10.28,23.5Zm-11.1,10.3c-.33,.23-.49,.35-.81,.58-1.58,1.15-2.58,2.14-3,2.97-.42,.83-.54,1.43-.37,1.8,.17,.37,.52,.47,1.04,.31,.52-.16,.97-.67,1.37-1.52,.71-1.66,1.07-2.49,1.78-4.14Z"/><path class="bd" d="M866.37,200.97c-3.11,3.61-6.71,6.72-10.8,9.34-4.09,2.62-8.48,4.54-13.09,5.78-2.91,.78-5.51,1.2-7.81,1.22-2.29,.02-4.23-.21-5.81-.71-1.58-.49-2.77-1.24-3.59-2.23-.81-.99-1.14-2.15-1-3.45,.1-.99,.59-2.12,1.48-3.36,.89-1.24,2.05-2.46,3.48-3.67,1.43-1.21,3.09-2.34,4.99-3.41,1.9-1.06,3.93-1.95,6.1-2.67-2.66-.14-4.85-.67-6.55-1.58-1.7-.92-2.96-2.04-3.77-3.38-.81-1.34-1.23-2.79-1.26-4.33-.03-1.55,.28-3.04,.92-4.49,1.08-2.21,2.58-4.34,4.48-6.39,1.9-2.05,4.09-3.92,6.58-5.6,2.49-1.68,5.22-3.1,8.17-4.26s6-1.94,9.1-2.36c3.98-.54,7.29-.43,9.88,.36,2.59,.8,4.03,2.43,4.33,4.9,.1,.72-.06,1.61-.48,2.66-.42,1.05-1.04,2.12-1.85,3.21-.81,1.09-1.8,2.16-2.96,3.21-1.16,1.05-2.44,1.91-3.85,2.58-1.41,.67-2.9,1.11-4.48,1.32-1.58,.21-3.18,.03-4.81-.54,2.37-1.72,4.4-3.59,6.1-5.59,1.7-2,2.59-3.85,2.77-5.41,.16-1.33-.04-2.51-.7-3.44s-2.11-1.21-4.33-.85c-2.96,.49-5.76,1.49-8.4,3.02-2.64,1.53-4.9,3.34-6.77,5.43-.54,.59-1.12,1.44-1.74,2.55-.62,1.12-1.08,2.33-1.41,3.64-.32,1.31-.42,2.64-.3,3.97,.12,1.33,.65,2.51,1.59,3.54,.94,1.02,2.38,1.79,4.33,2.3,1.95,.51,4.57,.61,7.88,.31,.34,0,.39,.22,.15,.68-.25,.46-.62,1-1.11,1.63-.49,.63-1.05,1.24-1.66,1.83-.62,.6-1.13,1.07-1.44,1.2-1.25,.53-3.21,1.04-5.03,1.92-1.82,.88-3.54,1.88-5.14,3.02-1.6,1.14-2.91,2.33-3.92,3.59-1.01,1.26-1.46,2.45-1.37,3.56,.11,1.3,1.01,2.29,2.74,2.93,1.73,.64,4.25,.54,7.55-.25,1.47-.35,3.11-.92,4.88-1.71,1.78-.79,3.58-1.74,5.4-2.86,1.82-1.12,3.63-2.36,5.4-3.74,1.78-1.38,3.54-2.86,5.03-4.44,1.14-1.2,2.32-2.59,3.55-3.97,1.23-1.38,2.42-2.8,3.55-4.26,0,.05,.05,.18,.15,.38,.1,.21,.17,.48,.22,.82,.05,.34,0,.75-.15,1.24-.15,.49-.47,1.05-.96,1.67-.69,.95-1.41,1.84-2.15,2.67-.74,.83-1.46,1.65-2.15,2.45Z"/><path class="bd" d="M877.02,192.41c2.07-2.49,3.85-4.57,5.33-6.25,1.48-1.68,2.77-3.03,3.88-4.06,1.11-1.03,2.03-1.77,2.77-2.22,.74-.45,1.41-.72,2-.81,.84-.12,1.53-.01,2.07,.33,.54,.34,.83,.93,.89,1.76,.04,.68-.06,1.48-.33,2.38-.27,.9-.68,2.03-1.22,3.39-.54,1.36-1.23,2.99-2.07,4.88-.84,1.9-1.84,4.18-2.88,6.78-.7,1.75-.79,2.59-.3,2.45,.49-.15,1.34-.86,2.55-2.15,1.21-1.28,2.69-2.97,4.44-5.04,1.75-2.07,3.51-4.17,5.29-6.29,0,.05,.06,.18,.18,.38,.12,.2,.21,.48,.26,.81,.05,.34,.01,.75-.11,1.24-.12,.49-.46,1.04-1,1.65-1.43,1.63-2.68,3.07-3.74,4.33-1.06,1.26-2.08,2.4-3.07,3.43-.99,1.03-1.97,1.99-2.96,2.87-.99,.88-2.1,1.81-3.33,2.78-.69,.55-1.46,.92-2.29,1.12-.84,.2-1.6,.23-2.29,.09-.69-.14-1.23-.43-1.63-.86-.39-.43-.52-1.03-.37-1.79,.39-1.93,1.05-4.09,1.96-6.48,.91-2.38,2.01-4.88,3.29-7.49,.34-.79,.36-1.25,.04-1.37-.32-.12-.86,.16-1.59,.87-.54,.52-1.15,1.17-1.81,1.94-.67,.77-1.37,1.58-2.11,2.43-.74,.85-1.48,1.71-2.22,2.56-.74,.85-1.43,1.65-2.07,2.39-.56,1.42-.84,2.13-1.41,3.55-.54,1.42-1.06,2.55-1.55,3.39-.49,.84-.99,1.5-1.48,1.97-.49,.47-1.02,.8-1.59,.99-.57,.19-1.19,.36-1.81,.44-.81,.11-1.48-.11-1.92-.58-.44-.47-.44-1.25-.07-2.28,.51-1.47,1.1-3.2,1.81-5.06,.71-1.86,1.49-3.8,2.33-5.81,.84-2.01,1.74-4.04,2.7-6.09,.96-2.05,1.96-3.99,3-5.83,.39-.75,.99-1.32,1.78-1.72,.79-.39,1.56-.62,2.33-.69,.76-.07,1.42-.03,1.96,.11,.54,.14,.76,.36,.67,.68-1.72,4.34-2.57,6.52-4.29,10.86Z"/><path class="bd" d="M921.93,165.57c.39-.74,1-1.29,1.81-1.65,.81-.36,1.63-.59,2.44-.68,.81-.09,1.52-.05,2.11,.1s.84,.37,.74,.62c-.25,.77-.73,1.96-1.44,3.59-.71,1.63-1.53,3.47-2.44,5.52-.91,2.05-1.87,4.19-2.88,6.43-1.01,2.24-1.97,4.37-2.89,6.4-.91,2.03-1.71,3.84-2.4,5.43-.69,1.59-1.16,2.74-1.41,3.46-.69,1.76-.81,2.58-.37,2.45,.44-.13,1.26-.82,2.44-2.07,1.18-1.25,2.61-2.89,4.29-4.9,1.68-2.02,3.4-4.06,5.18-6.13,0,.05,.07,.18,.22,.38,.15,.21,.25,.48,.3,.82,.05,.34,0,.75-.15,1.24-.15,.48-.49,1.03-1.04,1.63-1.38,1.58-2.6,2.99-3.66,4.22-1.06,1.23-2.07,2.35-3.03,3.35s-1.95,1.93-2.96,2.79c-1.01,.86-2.13,1.76-3.37,2.71-.69,.53-1.41,.9-2.15,1.12-.74,.22-1.43,.3-2.07,.26-.64-.04-1.18-.21-1.63-.49-.44-.29-.72-.7-.74-1.16-.03-.65,.25-1.78,.74-3.28-.74,.74-1.54,1.47-2.41,2.2-.86,.73-1.73,1.4-2.59,2.01-.86,.61-1.7,1.12-2.52,1.52-.81,.41-1.57,.66-2.26,.76-1.28,.18-2.26,.06-2.92-.37-.67-.42-1.05-1.05-1.15-1.87-.15-1.3-.01-2.85,.41-4.61,.42-1.76,1.1-3.58,2.03-5.47,.94-1.88,2.08-3.75,3.44-5.62,1.36-1.86,2.87-3.56,4.55-5.09,1.68-1.53,3.49-2.8,5.44-3.82,1.95-1.01,3.98-1.6,6.03-1.83,.24-.03,.5-.06,.78-.09,.27-.03,.53-.04,.78-.02,1.89-3.96,2.84-5.93,4.73-9.88Zm-12.21,17.98c1.28-.41,2.38-.92,3.29-1.52,.91-.61,1.62-1.28,2.11-2.04,.1-.26,.2-.48,.3-.67,.1-.18,.23-.43,.3-.66,.08-.3-.09-.63-.41-.84-.32-.21-.92-.13-1.81,.22-.89,.36-1.79,1.04-2.7,2.04-.91,1-1.81,2.18-2.7,3.53-.89,1.35-1.73,2.79-2.52,4.32-.79,1.54-1.48,3.02-2.07,4.46-.59,1.44-1.06,2.74-1.41,3.92-.34,1.18-.52,2.09-.52,2.73,0,.54,.3,.69,.89,.43,.59-.25,1.29-.7,2.11-1.35,.81-.65,1.65-1.4,2.52-2.25,.86-.85,1.57-1.61,2.11-2.27,.54-1.45,1.17-3,1.89-4.64,.71-1.64,1.44-3.3,2.18-4.97-.84,.15-1.57,.21-2.18,.16-.62-.05-1.07-.25-1.37-.6Z"/><path class="bd" d="M920.81,197.96c.35-1.72,.85-3.51,1.52-5.39,.67-1.88,1.42-3.75,2.26-5.62,.84-1.87,1.75-3.75,2.74-5.63,.99-1.88,1.97-3.69,2.96-5.42,.44-.74,1.07-1.27,1.89-1.6,.81-.33,1.6-.51,2.37-.54,.76-.03,1.42,.04,1.96,.21,.54,.17,.76,.38,.67,.64-3.26,7.45-4.88,11.18-8.14,18.66-.69,1.75-.79,2.56-.3,2.44,.49-.13,1.36-.81,2.59-2.05,1.23-1.24,2.7-2.85,4.4-4.85,1.7-1.99,3.44-4.01,5.22-6.04,0,.05,.06,.18,.18,.39,.12,.21,.21,.49,.26,.83,.05,.34,.01,.75-.11,1.23-.12,.48-.46,1.02-1,1.61-1.43,1.56-2.66,2.95-3.7,4.16-1.04,1.21-2.04,2.31-3,3.29-.96,.99-1.94,1.9-2.92,2.74-.99,.84-2.12,1.73-3.4,2.66-.69,.52-1.44,.86-2.26,1.02-.81,.16-1.55,.16-2.22,0-.67-.17-1.19-.48-1.59-.93-.39-.45-.52-1.05-.37-1.81Zm14.57-30.2c.6-.82,1.45-1.49,2.59-1.92,1.13-.43,2.15-.47,3.03-.17,.92,.32,1.48,.88,1.63,1.7,.15,.83-.14,1.67-.81,2.51-.69,.88-1.59,1.56-2.7,1.99-1.11,.43-2.11,.47-3,.18-.92-.31-1.47-.86-1.59-1.69-.12-.83,.19-1.7,.85-2.6Z"/><path class="bd" d="M946.56,183.82c2.07-2.34,3.85-4.3,5.33-5.87,1.48-1.57,2.77-2.82,3.88-3.76,1.11-.94,2.03-1.61,2.77-2,.74-.39,1.41-.61,2-.65,.84-.05,1.53,.11,2.07,.5,.54,.39,.83,1,.89,1.83,.04,.68-.06,1.47-.33,2.35-.27,.88-.68,1.98-1.22,3.29-.54,1.32-1.23,2.89-2.07,4.72-.84,1.83-1.84,4.03-2.88,6.56-.7,1.7-.79,2.53-.3,2.42,.49-.11,1.34-.76,2.55-1.95,1.21-1.19,2.69-2.75,4.44-4.68,1.75-1.93,3.51-3.87,5.29-5.84,0,.05,.06,.18,.18,.4,.12,.22,.21,.5,.26,.84,.05,.34,.01,.75-.11,1.23-.12,.48-.46,1-1,1.57-1.43,1.5-2.68,2.84-3.74,4.01-1.06,1.17-2.08,2.23-3.07,3.18-.99,.95-1.97,1.83-2.96,2.63-.99,.81-2.1,1.65-3.33,2.52-.69,.49-1.46,.81-2.29,.94-.84,.14-1.6,.11-2.29-.08-.69-.19-1.23-.52-1.63-.98-.39-.46-.52-1.07-.37-1.82,.39-1.91,1.05-4.02,1.96-6.33,.91-2.31,2.01-4.73,3.29-7.24,.34-.77,.36-1.22,.04-1.37-.32-.15-.86,.1-1.59,.75-.54,.48-1.15,1.09-1.81,1.8-.67,.72-1.37,1.48-2.11,2.28-.74,.8-1.48,1.6-2.22,2.4-.74,.8-1.43,1.55-2.07,2.25-.56,1.38-.84,2.07-1.41,3.45-.54,1.38-1.06,2.48-1.55,3.28-.49,.81-.99,1.43-1.48,1.88-.49,.44-1.02,.74-1.59,.89-.57,.15-1.19,.28-1.81,.32-.81,.06-1.48-.2-1.92-.7-.44-.5-.44-1.27-.07-2.29,.52-1.44,1.1-3.13,1.81-4.95,.71-1.82,1.49-3.71,2.33-5.66,.84-1.95,1.74-3.92,2.7-5.91,.96-1.99,1.96-3.86,3-5.63,.39-.72,.99-1.26,1.78-1.6,.79-.34,1.57-.51,2.33-.53,.76-.01,1.42,.07,1.96,.25,.54,.18,.76,.42,.67,.72-1.72,4.22-2.57,6.33-4.29,10.56Z"/><path class="bd" d="M982.81,193.24c1.38-1.07,2.87-2.34,4.48-3.8,1.6-1.46,3.44-3.24,5.51-5.33,.69-.6,1.32-1.25,1.89-1.97,.57-.72,1.2-1.42,1.89-2.11,0,.05,.06,.19,.18,.41,.12,.22,.22,.51,.3,.85,.07,.35,.05,.75-.07,1.22-.12,.47-.46,.97-1,1.52-.44,.44-.67,.67-1.11,1.11-2.71,2.87-5.22,5.27-7.51,7.19-2.29,1.92-4.4,3.5-6.33,4.74-1.63,3.42-2.44,5.14-4.07,8.57-.99,1.66-2.16,2.87-3.51,3.62-1.36,.75-2.68,1.16-3.96,1.22-1.28,.06-2.43-.15-3.44-.63-1.01-.49-1.68-1.15-2-2-.32-.84-.18-1.8,.41-2.87,.59-1.07,1.82-2.15,3.7-3.23,.84-.49,1.65-.92,2.44-1.3,.79-.38,1.55-.76,2.29-1.14,.54-1.16,1.05-2.26,1.52-3.32s.92-2.11,1.37-3.16c-1.43,1.14-2.9,2.15-4.4,3.04-1.5,.88-2.85,1.36-4.03,1.42-1.28,.07-2.26-.14-2.92-.62-.67-.48-1.05-1.14-1.15-1.97-.15-1.32-.01-2.85,.41-4.57,.42-1.73,1.1-3.49,2.03-5.29,.94-1.8,2.08-3.58,3.44-5.32,1.36-1.74,2.87-3.31,4.55-4.69,1.68-1.38,3.49-2.48,5.44-3.31,1.95-.83,3.98-1.22,6.03-1.24,1.46-.02,2.79,.18,3.92,.63,1.13,.45,1.76,1.18,1.85,2.16,.06,.63-.1,1.23-.44,1.78-.35,.55-.79,1.02-1.33,1.42,.44,.09,.82,.2,1.11,.32,.3,.12,.39,.25,.3,.4-3.11,6.49-4.66,9.75-7.77,16.28Zm-11.25,8.99c-.2,.11-.37,.2-.52,.28-.15,.08-.3,.17-.44,.28-1.58,.96-2.58,1.84-3,2.63-.42,.79-.54,1.37-.37,1.76,.17,.38,.53,.53,1.07,.42,.54-.1,1.01-.56,1.41-1.36,.74-1.6,1.11-2.41,1.85-4.01Zm8.58-24.67c1.58-.3,2.85-.79,3.81-1.47s1.64-1.48,2.03-2.38c.1-.4,0-.8-.3-1.21s-.96-.39-1.92-.07c-.85,.29-1.83,.86-2.81,1.78-.99,.92-1.95,2.01-2.89,3.28-.94,1.27-1.83,2.63-2.66,4.09-.84,1.46-1.58,2.9-2.22,4.31-.64,1.41-1.15,2.69-1.52,3.84-.37,1.15-.56,2.05-.56,2.69,0,.44,.22,.63,.67,.56,.44-.07,.99-.3,1.63-.7,.64-.4,1.33-.89,2.07-1.49,.74-.6,1.41-1.2,2-1.81,.79-1.66,1.58-3.36,2.37-5.11s1.68-3.58,2.66-5.48c-1.14-.07-1.92-.34-2.37-.82Z"/></g><g><path class="ac" d="M679.21,187.15c1.86-.3,3.22-.29,4.03,.09,.81,.39,1.25,.82,1.29,1.31,.25,.48,.31,.99,.19,1.54-.12,.55-.31,1.06-.55,1.52-.84,1.49-1.76,3.11-2.77,4.86-1.01,1.75-2.1,3.6-3.25,5.55-1.16,1.95-2.34,3.96-3.55,6.03-1.21,2.07-2.4,4.12-3.59,6.16,2.66-.49,5.35-.91,8.06-1.26,2.71-.35,5.7-.7,8.95-1.06,1.08-2.21,2.22-4.51,3.4-6.9,1.18-2.39,2.35-4.73,3.51-7,1.16-2.27,2.27-4.43,3.33-6.48,1.06-2.05,2.01-3.88,2.85-5.49,1.38-.03,2.49,.09,3.33,.37,.84,.28,1.46,.68,1.85,1.18,.39,.5,.59,1.06,.59,1.68s-.1,1.21-.3,1.77c-.79,2.05-1.7,4.36-2.74,6.9-1.04,2.54-2.13,5.18-3.29,7.91-1.16,2.73-2.33,5.45-3.51,8.17-1.18,2.72-2.32,5.32-3.4,7.78-1.08,2.46-2.07,4.72-2.96,6.76-.89,2.05-1.6,3.73-2.15,5.06-1.48-.08-2.84-.26-4.07-.54-1.23-.28-2.22-.71-2.96-1.3-.74-.59-1.17-1.36-1.29-2.32-.12-.95,.16-2.12,.85-3.5,1.98-3.98,2.97-5.98,4.96-9.98-3.26,.55-6.42,1.18-9.51,1.92-3.08,.73-6.13,1.49-9.14,2.28-2.07,3.45-3.97,6.58-5.7,9.38-1.73,2.8-3.08,5-4.07,6.61-1.48-.15-2.79-.4-3.92-.74-1.13-.34-2.01-.82-2.63-1.42-.62-.61-.89-1.39-.81-2.35,.07-.96,.6-2.12,1.59-3.47,.39-.55,.85-1.2,1.37-1.95,.52-.75,1.1-1.63,1.74-2.63-2.52,.71-4.93,1.36-7.25,1.96-2.32,.6-4.61,1.12-6.88,1.56,.35-1.04,.75-2,1.22-2.89,.47-.89,1.12-1.71,1.96-2.45,.84-.74,1.94-1.42,3.29-2.03,1.36-.61,3.11-1.17,5.22-1.64,1.27-.28,2.49-.55,3.62-.83,1.13-.28,2.27-.54,3.4-.77,1.38-2.12,2.84-4.37,4.36-6.75,1.53-2.38,3.06-4.75,4.59-7.09,1.53-2.34,3.04-4.62,4.55-6.83,1.5-2.21,2.92-4.24,4.25-6.1-3.26,.7-6.07,1.62-8.43,2.77-2.37,1.15-4.36,2.41-5.99,3.78-1.63,1.37-2.9,2.81-3.81,4.32-.91,1.51-1.55,2.98-1.92,4.43-.37,1.44-.51,2.82-.41,4.12,.1,1.3,.37,2.42,.81,3.34-2.52-.07-4.58-.45-6.18-1.14-1.6-.68-2.77-1.57-3.51-2.64-.74-1.07-1.05-2.27-.92-3.58,.12-1.31,.68-2.67,1.66-4.05,1.21-1.69,2.86-3.26,4.88-4.72,2.02-1.45,4.34-2.78,6.95-3.98,2.61-1.2,5.51-2.24,8.69-3.11,3.18-.88,6.59-1.55,10.1-2.11Z"/><path class="ac" d="M724.71,203.66c.08,1.14-.57,2.34-1.85,3.48,1.04,.02,1.53,.18,1.48,.48-.84,2.32-1.78,4.55-2.81,6.67-1.04,2.12-1.89,4.33-2.66,6.42-.64,1.74-.81,2.59-.37,2.49,.44-.1,1.26-.78,2.44-2.03,1.18-1.25,2.61-2.89,4.29-4.93,1.68-2.03,3.4-4.1,5.18-6.21,.05,.09,.14,.24,.26,.45,.12,.21,.2,.47,.22,.79,.02,.32-.04,.72-.19,1.21-.15,.49-.47,1.01-.96,1.57-1.38,1.61-2.6,3.03-3.66,4.28-1.06,1.24-2.07,2.37-3.03,3.37-.96,1.01-1.95,1.94-2.96,2.8-1.01,.86-2.13,1.76-3.37,2.69-.69,.52-1.41,.89-2.15,1.1-.74,.21-1.43,.28-2.07,.23-.64-.05-1.18-.23-1.63-.52-.44-.3-.72-.71-.74-1.18-.04-.75,.15-1.79,.44-3.01-1.53,1.45-3.16,2.77-4.88,3.96-1.73,1.19-3.25,1.85-4.59,1.98-1.28,.12-2.26-.04-2.92-.5-.67-.46-1.05-1.1-1.15-1.93-.15-1.31-.01-2.85,.41-4.59,.42-1.74,1.1-3.53,2.03-5.37,.94-1.84,2.08-3.66,3.44-5.48,1.36-1.81,2.87-3.46,4.55-4.94,1.68-1.48,3.49-2.71,5.44-3.7,1.95-.98,3.98-1.55,6.03-1.77,1.46-.16,2.79-.1,3.92,.23,1.13,.33,1.78,1.01,1.85,1.95Zm-10.8,5.57c1.58-.42,2.85-1.03,3.81-1.81,.96-.78,1.64-1.64,2.03-2.57,.1-.41,0-.8-.3-1.19-.3-.38-.95-.3-1.92,.12-.85,.37-1.83,1.03-2.81,2.02-.99,1-1.95,2.17-2.88,3.5-.94,1.34-1.83,2.76-2.66,4.28-.84,1.52-1.58,3-2.22,4.45-.64,1.45-1.15,2.76-1.52,3.93-.37,1.17-.55,2.08-.55,2.72,0,.49,.26,.66,.78,.51,.52-.15,1.12-.48,1.81-1,.69-.52,1.44-1.14,2.26-1.87,.81-.73,1.52-1.45,2.11-2.15,.69-1.75,1.44-3.54,2.26-5.36,.81-1.82,1.56-3.48,2.26-4.99-1.23,.04-2.05-.16-2.44-.61Z"/><path class="ac" d="M739.5,202.24c.41-.35,.62-.53,1.04-.88,2.42-2.01,5.02-3.28,7.77-3.77,1.86-.33,3.13,.11,3.77,1.3,.64,1.19,.79,2.78,.44,4.78-.35,2-1.07,4.23-2.18,6.68-1.11,2.46-2.45,4.79-4.03,6.99-1.58,2.2-3.3,4.09-5.18,5.65-1.87,1.57-3.76,2.52-5.55,2.72-1.21,.14-2.22-.15-2.96-.79-.74-.64-1.28-1.41-1.63-2.3-1.89,4.54-2.84,6.8-4.73,11.33-.54,1.4-1.04,2.51-1.48,3.33-.44,.82-.91,1.47-1.41,1.95-.49,.48-1.01,.8-1.55,.97-.54,.16-1.18,.29-1.92,.38-.89,.11-1.53-.09-1.92-.59-.39-.5-.39-1.29,0-2.37,.35-.97,.88-2.39,1.59-4.22,.72-1.84,1.55-3.88,2.52-6.15,.96-2.26,1.99-4.66,3.07-7.18,1.08-2.53,2.16-4.98,3.22-7.36,1.06-2.38,2.07-4.56,3.03-6.53,.96-1.98,1.76-3.57,2.4-4.79,.44-.75,1.06-1.3,1.85-1.65,.79-.35,1.57-.57,2.33-.65,.76-.08,1.42-.05,1.96,.1,.54,.15,.74,.35,.59,.62-.41,.97-.62,1.46-1.04,2.44Zm4.66-.95c-.29,.03-.49,.08-.59,.12-.1,.04-.19,.08-.26,.11-.07,.04-.16,.1-.26,.18-.1,.09-.27,.24-.52,.41-.37,.26-.74,.57-1.04,.96-.3,.39-.51,.79-.63,1.2-.12,.41-.1,.8,.07,1.17,.17,.37,.53,.64,1.07,.81-1.18,.41-2.11,.59-2.77,.53-.67-.06-1.12-.24-1.37-.55-1.81,4.27-2.71,6.41-4.51,10.67-.95,2.29-1.42,3.43-2.37,5.71-.2-.42-.32-.83-.37-1.25-.05-.41-.02-.84,0-1.22,.05-.83,.14-1.73,.41-2.53,.27-.8,.73-1.86,1.37-3.18,.65,.33,.98,.49,1.63,.82-.84,1.99-1.28,3.64-1.33,4.95-.05,1.31,.51,1.84,1.63,1.67,.62-.1,1.45-.68,2.44-1.77,.99-1.1,1.99-2.42,3-3.96,1.01-1.55,1.97-3.21,2.89-4.99,.91-1.78,1.63-3.41,2.15-4.89,.52-1.48,.75-2.7,.7-3.65-.05-.95-.52-1.42-1.33-1.33Z"/><path class="ac" d="M765.32,198.41c.41-.36,.62-.54,1.04-.9,2.42-2.06,5.02-3.37,7.77-3.9,1.86-.36,3.13,.06,3.77,1.24,.64,1.18,.79,2.77,.44,4.77-.35,2.01-1.07,4.24-2.18,6.72-1.11,2.47-2.45,4.82-4.03,7.05-1.58,2.23-3.3,4.14-5.18,5.74-1.87,1.6-3.76,2.59-5.55,2.83-1.21,.16-2.22-.1-2.96-.73-.74-.63-1.28-1.38-1.63-2.27-1.89,4.58-2.84,6.86-4.73,11.44-.54,1.41-1.04,2.53-1.48,3.36-.44,.83-.91,1.49-1.41,1.98-.49,.49-1.01,.83-1.55,1-.54,.18-1.18,.32-1.92,.43-.89,.13-1.53-.05-1.92-.54-.39-.49-.39-1.28,0-2.37,.35-.98,.88-2.41,1.59-4.26,.72-1.85,1.55-3.92,2.52-6.21,.96-2.28,1.99-4.7,3.07-7.25,1.08-2.55,2.16-5.03,3.22-7.43,1.06-2.4,2.07-4.6,3.03-6.6,.96-2,1.76-3.61,2.4-4.84,.44-.76,1.06-1.32,1.85-1.69,.79-.37,1.56-.6,2.33-.69,.76-.09,1.42-.07,1.96,.06,.54,.14,.74,.34,.59,.61-.41,.98-.62,1.47-1.04,2.46Zm4.66-1.03c-.29,.04-.49,.09-.59,.13-.1,.04-.19,.08-.26,.12-.07,.04-.16,.1-.26,.19-.1,.09-.27,.24-.52,.42-.37,.26-.74,.59-1.04,.98-.3,.39-.51,.8-.63,1.21-.12,.41-.1,.8,.07,1.17,.17,.37,.53,.63,1.07,.79-1.18,.44-2.11,.63-2.77,.59-.67-.04-1.12-.22-1.37-.53-1.81,4.31-2.71,6.46-4.51,10.76-.95,2.31-1.42,3.46-2.37,5.76-.2-.41-.32-.83-.37-1.24-.05-.41-.02-.84,0-1.22,.05-.83,.14-1.73,.41-2.54,.27-.81,.73-1.87,1.37-3.2,.65,.31,.98,.47,1.63,.79-.84,2-1.28,3.66-1.33,4.98-.05,1.32,.51,1.83,1.63,1.64,.62-.11,1.45-.7,2.44-1.82,.99-1.12,1.99-2.45,3-4.02,1.01-1.56,1.97-3.25,2.89-5.04,.91-1.8,1.63-3.44,2.15-4.93,.52-1.49,.75-2.71,.7-3.66-.05-.95-.52-1.41-1.33-1.3Z"/><path class="ac" d="M796.76,213c1.43-1.28,2.97-2.79,4.62-4.52,1.65-1.74,3.54-3.87,5.66-6.41,.64-.7,1.26-1.46,1.85-2.28,.59-.82,1.23-1.63,1.92-2.44,0,.05,.06,.17,.19,.38,.12,.2,.22,.47,.3,.8,.07,.33,.06,.74-.04,1.23-.1,.49-.42,1.05-.96,1.68-.47,.53-.71,.79-1.18,1.31-2.76,3.39-5.31,6.21-7.66,8.49-2.34,2.27-4.48,4.16-6.4,5.67-1.57,3.61-2.35,5.41-3.92,9.02-.99,1.79-2.16,3.15-3.51,4.07-1.36,.92-2.68,1.48-3.96,1.69-1.28,.21-2.42,.13-3.4-.25-.99-.38-1.64-.98-1.96-1.79-.32-.81-.2-1.78,.37-2.91,.57-1.13,1.81-2.34,3.74-3.65,1.81-1.16,2.71-1.74,4.51-2.89,.84-2.01,1.68-4.05,2.52-6.12,.84-2.06,1.7-4.13,2.59-6.21-.89,1.04-1.7,1.99-2.44,2.85-.74,.86-1.49,1.69-2.26,2.49-.77,.79-1.55,1.55-2.37,2.28-.81,.73-1.74,1.47-2.7,2.22-.69,.54-1.44,.94-2.26,1.15s-1.55,.24-2.22,.1c-.67-.14-1.2-.42-1.59-.85-.39-.43-.52-1.03-.37-1.79,.35-1.73,.85-3.55,1.52-5.46,.67-1.91,1.42-3.82,2.26-5.73,.84-1.91,1.75-3.84,2.74-5.78,.99-1.94,1.97-3.8,2.96-5.59,.44-.76,1.07-1.34,1.89-1.72,.81-.38,1.6-.61,2.37-.69,.76-.08,1.42-.05,1.96,.08,.54,.13,.76,.33,.67,.59-3.26,7.68-4.88,11.52-8.14,19.19-.44,1.16-.63,1.89-.55,2.2,.07,.31,.33,.32,.78,.02,.44-.3,1.05-.86,1.81-1.71,.76-.84,1.64-1.84,2.63-2.99,.99-1.15,2.05-2.41,3.18-3.79,1.13-1.37,2.56-2.83,3.4-4.2,.82-1.32,1.52-3.19,2.33-4.76,.81-1.57,1.69-3.15,2.63-4.74,.44-.77,1.06-1.34,1.85-1.72,.79-.38,1.57-.61,2.33-.69,.76-.08,1.42-.06,1.96,.07,.54,.13,.76,.33,.67,.59-4.11,9.41-6.17,14.11-10.28,23.5Zm-11.1,10.3c-.33,.23-.49,.35-.81,.58-1.58,1.15-2.58,2.14-3,2.97-.42,.83-.54,1.43-.37,1.8,.17,.37,.52,.47,1.04,.31,.52-.16,.97-.67,1.37-1.52,.71-1.66,1.07-2.49,1.78-4.14Z"/><path class="ac" d="M865.19,196.61c-3.11,3.61-6.71,6.72-10.8,9.34-4.09,2.62-8.48,4.54-13.09,5.78-2.91,.78-5.51,1.2-7.81,1.22-2.29,.02-4.23-.21-5.81-.71-1.58-.49-2.77-1.24-3.59-2.23-.81-.99-1.14-2.15-1-3.45,.1-.99,.59-2.12,1.48-3.36,.89-1.24,2.05-2.46,3.48-3.67,1.43-1.21,3.09-2.34,4.99-3.41,1.9-1.06,3.93-1.95,6.1-2.67-2.66-.14-4.85-.67-6.55-1.58-1.7-.92-2.96-2.04-3.77-3.38-.81-1.34-1.23-2.79-1.26-4.33-.03-1.55,.28-3.04,.92-4.49,1.08-2.21,2.58-4.34,4.48-6.39,1.9-2.05,4.09-3.92,6.58-5.6,2.49-1.68,5.22-3.1,8.17-4.26,2.96-1.16,6-1.94,9.1-2.36,3.98-.54,7.29-.43,9.88,.36,2.59,.8,4.03,2.43,4.33,4.9,.1,.72-.06,1.61-.48,2.66-.42,1.05-1.04,2.12-1.85,3.21-.81,1.09-1.8,2.16-2.96,3.21-1.16,1.05-2.44,1.91-3.85,2.58-1.41,.67-2.9,1.11-4.48,1.32-1.58,.21-3.18,.03-4.81-.54,2.37-1.72,4.4-3.59,6.1-5.59,1.7-2,2.59-3.85,2.77-5.41,.16-1.33-.04-2.51-.7-3.44s-2.11-1.21-4.33-.85c-2.96,.49-5.76,1.49-8.4,3.02-2.64,1.53-4.9,3.34-6.77,5.43-.54,.59-1.12,1.44-1.74,2.55-.62,1.12-1.08,2.33-1.41,3.64-.32,1.31-.42,2.64-.3,3.97,.12,1.33,.65,2.51,1.59,3.54,.94,1.02,2.38,1.79,4.33,2.3,1.95,.51,4.57,.61,7.88,.31,.34,0,.39,.22,.15,.68-.25,.46-.62,1-1.11,1.63-.49,.63-1.05,1.24-1.66,1.83-.62,.6-1.13,1.07-1.44,1.2-1.25,.53-3.21,1.04-5.03,1.92-1.82,.88-3.54,1.88-5.14,3.02-1.6,1.14-2.91,2.33-3.92,3.59-1.01,1.26-1.46,2.45-1.37,3.56,.11,1.3,1.01,2.29,2.74,2.93,1.73,.64,4.25,.54,7.55-.25,1.47-.35,3.11-.92,4.88-1.71,1.78-.79,3.58-1.74,5.4-2.86,1.82-1.12,3.62-2.36,5.4-3.74,1.78-1.38,3.54-2.86,5.03-4.44,1.14-1.2,2.32-2.59,3.55-3.97,1.23-1.38,2.42-2.8,3.55-4.26,0,.05,.05,.18,.15,.38,.1,.21,.17,.48,.22,.82,.05,.34,0,.75-.15,1.24-.15,.49-.47,1.05-.96,1.67-.69,.95-1.41,1.84-2.15,2.67-.74,.83-1.46,1.65-2.15,2.45Z"/><path class="ac" d="M875.84,188.06c2.07-2.49,3.85-4.57,5.33-6.25,1.48-1.68,2.77-3.03,3.88-4.06,1.11-1.03,2.03-1.77,2.77-2.22,.74-.45,1.41-.72,2-.81,.84-.12,1.53-.01,2.07,.33,.54,.34,.83,.93,.89,1.76,.04,.68-.06,1.48-.33,2.38-.27,.9-.68,2.03-1.22,3.39-.54,1.36-1.23,2.99-2.07,4.88-.84,1.9-1.84,4.18-2.88,6.78-.7,1.75-.79,2.59-.3,2.45,.49-.15,1.34-.86,2.55-2.15,1.21-1.28,2.69-2.97,4.44-5.04,1.75-2.07,3.51-4.17,5.29-6.29,0,.05,.06,.18,.18,.38,.12,.2,.21,.48,.26,.81,.05,.34,.01,.75-.11,1.24-.12,.49-.46,1.04-1,1.65-1.43,1.63-2.68,3.07-3.74,4.33-1.06,1.26-2.08,2.4-3.07,3.43-.99,1.03-1.97,1.99-2.96,2.87-.99,.88-2.1,1.81-3.33,2.78-.69,.55-1.46,.92-2.29,1.12-.84,.2-1.6,.23-2.29,.09-.69-.14-1.23-.43-1.63-.86-.39-.43-.52-1.03-.37-1.79,.39-1.93,1.05-4.09,1.96-6.48,.91-2.38,2.01-4.88,3.29-7.49,.34-.79,.36-1.25,.04-1.37-.32-.12-.86,.16-1.59,.87-.54,.52-1.15,1.17-1.81,1.94-.67,.77-1.37,1.58-2.11,2.43-.74,.85-1.48,1.71-2.22,2.56-.74,.85-1.43,1.65-2.07,2.39-.56,1.42-.84,2.13-1.41,3.55-.54,1.42-1.06,2.55-1.55,3.39-.49,.84-.99,1.5-1.48,1.97-.49,.47-1.02,.8-1.59,.99-.57,.19-1.19,.36-1.81,.44-.81,.11-1.48-.11-1.92-.58-.44-.47-.44-1.25-.07-2.28,.51-1.47,1.1-3.2,1.81-5.06,.71-1.86,1.49-3.8,2.33-5.81,.84-2.01,1.74-4.04,2.7-6.09,.96-2.05,1.96-3.99,3-5.83,.39-.75,.99-1.32,1.78-1.72,.79-.39,1.56-.62,2.33-.69,.76-.07,1.42-.03,1.96,.11,.54,.14,.76,.36,.67,.68-1.72,4.34-2.57,6.52-4.29,10.86Z"/><path class="ac" d="M920.75,161.22c.39-.74,1-1.29,1.81-1.65,.81-.36,1.63-.59,2.44-.68,.81-.09,1.52-.05,2.11,.1s.84,.37,.74,.62c-.25,.77-.73,1.96-1.44,3.59-.71,1.63-1.53,3.47-2.44,5.52-.91,2.05-1.87,4.19-2.88,6.43-1.01,2.24-1.97,4.37-2.89,6.4-.91,2.03-1.71,3.84-2.4,5.43-.69,1.59-1.16,2.74-1.41,3.46-.69,1.76-.81,2.58-.37,2.45,.44-.13,1.26-.82,2.44-2.07,1.18-1.25,2.61-2.89,4.29-4.9,1.68-2.02,3.4-4.06,5.18-6.13,0,.05,.07,.18,.22,.38,.15,.21,.25,.48,.3,.82,.05,.34,0,.75-.15,1.24-.15,.48-.49,1.03-1.04,1.63-1.38,1.58-2.6,2.99-3.66,4.22-1.06,1.23-2.07,2.35-3.03,3.35-.96,1-1.95,1.93-2.96,2.79-1.01,.86-2.13,1.76-3.37,2.71-.69,.53-1.41,.9-2.15,1.12-.74,.22-1.43,.3-2.07,.26-.64-.04-1.18-.21-1.63-.49-.44-.29-.72-.7-.74-1.16-.03-.65,.25-1.78,.74-3.28-.74,.74-1.54,1.47-2.41,2.2-.86,.73-1.73,1.4-2.59,2.01-.86,.61-1.7,1.12-2.52,1.52-.81,.41-1.57,.66-2.26,.76-1.28,.18-2.26,.06-2.92-.37-.67-.42-1.05-1.05-1.15-1.87-.15-1.3-.01-2.85,.41-4.61,.42-1.76,1.1-3.58,2.03-5.47,.94-1.88,2.08-3.75,3.44-5.62,1.36-1.86,2.87-3.56,4.55-5.09,1.68-1.53,3.49-2.8,5.44-3.82,1.95-1.01,3.98-1.6,6.03-1.83,.24-.03,.5-.06,.78-.09,.27-.03,.53-.04,.78-.02,1.89-3.96,2.84-5.93,4.73-9.88Zm-12.21,17.98c1.28-.41,2.38-.92,3.29-1.52,.91-.61,1.62-1.28,2.11-2.04,.1-.26,.2-.48,.3-.67s.23-.43,.3-.66c.08-.3-.09-.63-.41-.84-.32-.21-.92-.13-1.81,.22-.89,.36-1.79,1.04-2.7,2.04-.91,1-1.81,2.18-2.7,3.53-.89,1.35-1.73,2.79-2.52,4.32-.79,1.54-1.48,3.02-2.07,4.46-.59,1.44-1.06,2.74-1.41,3.92-.34,1.18-.52,2.09-.52,2.73,0,.54,.3,.69,.89,.43,.59-.25,1.29-.7,2.11-1.35,.81-.65,1.65-1.4,2.52-2.25,.86-.85,1.57-1.61,2.11-2.27,.54-1.45,1.17-3,1.89-4.64,.71-1.64,1.44-3.3,2.18-4.97-.84,.15-1.57,.21-2.18,.16-.62-.05-1.07-.25-1.37-.6Z"/><path class="ac" d="M919.64,193.6c.35-1.72,.85-3.51,1.52-5.39,.67-1.88,1.42-3.75,2.26-5.62s1.75-3.75,2.74-5.63c.99-1.88,1.97-3.69,2.96-5.42,.44-.74,1.07-1.27,1.89-1.6,.81-.33,1.6-.51,2.37-.54,.76-.03,1.42,.04,1.96,.21,.54,.17,.76,.38,.67,.64-3.26,7.45-4.88,11.18-8.14,18.66-.69,1.75-.79,2.56-.3,2.44,.49-.13,1.36-.81,2.59-2.05,1.23-1.24,2.7-2.86,4.4-4.85,1.7-1.99,3.44-4.01,5.22-6.04,0,.05,.06,.18,.18,.39,.12,.21,.21,.49,.26,.83,.05,.34,.01,.75-.11,1.23-.12,.48-.46,1.02-1,1.61-1.43,1.56-2.66,2.95-3.7,4.16-1.04,1.21-2.04,2.31-3,3.29-.96,.99-1.94,1.9-2.92,2.74-.99,.84-2.12,1.73-3.4,2.66-.69,.52-1.44,.86-2.26,1.02-.81,.16-1.55,.16-2.22,0-.67-.17-1.19-.48-1.59-.93-.39-.45-.52-1.05-.37-1.81Zm14.57-30.2c.6-.82,1.45-1.49,2.59-1.92,1.13-.43,2.15-.47,3.03-.17,.92,.32,1.48,.88,1.63,1.7,.15,.83-.14,1.67-.81,2.51-.69,.88-1.59,1.56-2.7,1.99-1.11,.43-2.12,.47-3,.18-.92-.31-1.47-.86-1.59-1.69-.12-.83,.19-1.7,.85-2.6Z"/><path class="ac" d="M945.38,179.47c2.07-2.34,3.85-4.3,5.33-5.87,1.48-1.57,2.77-2.82,3.88-3.76,1.11-.94,2.03-1.61,2.77-2,.74-.39,1.41-.61,2-.65,.84-.05,1.53,.11,2.07,.5,.54,.39,.83,1,.89,1.83,.04,.68-.06,1.47-.33,2.35-.27,.88-.68,1.98-1.22,3.29-.54,1.32-1.23,2.89-2.07,4.72-.84,1.83-1.84,4.03-2.88,6.56-.7,1.7-.79,2.53-.3,2.42,.49-.11,1.34-.76,2.55-1.95,1.21-1.19,2.69-2.75,4.44-4.68,1.75-1.93,3.51-3.87,5.29-5.84,0,.05,.06,.18,.18,.4,.12,.22,.21,.5,.26,.84,.05,.34,.01,.75-.11,1.23-.12,.48-.46,1-1,1.57-1.43,1.5-2.68,2.84-3.74,4.01-1.06,1.17-2.08,2.23-3.07,3.18-.99,.95-1.97,1.83-2.96,2.63-.99,.81-2.1,1.65-3.33,2.52-.69,.49-1.46,.81-2.29,.94-.84,.14-1.6,.11-2.29-.08-.69-.19-1.23-.52-1.63-.98s-.52-1.07-.37-1.82c.39-1.91,1.05-4.02,1.96-6.33,.91-2.31,2.01-4.73,3.29-7.24,.34-.77,.36-1.22,.04-1.37-.32-.15-.86,.1-1.59,.75-.54,.48-1.15,1.09-1.81,1.8-.67,.72-1.37,1.48-2.11,2.28-.74,.8-1.48,1.6-2.22,2.4-.74,.8-1.43,1.55-2.07,2.25-.56,1.38-.84,2.07-1.41,3.45-.54,1.38-1.06,2.48-1.55,3.28-.49,.81-.99,1.43-1.48,1.88-.49,.44-1.02,.74-1.59,.89-.57,.15-1.19,.28-1.81,.32-.81,.06-1.48-.2-1.92-.7-.44-.5-.44-1.27-.07-2.29,.52-1.44,1.1-3.13,1.81-4.95,.71-1.82,1.49-3.71,2.33-5.66,.84-1.95,1.74-3.92,2.7-5.91,.96-1.99,1.96-3.86,3-5.63,.39-.72,.99-1.26,1.78-1.6,.79-.34,1.57-.51,2.33-.53,.76-.01,1.42,.07,1.96,.25,.54,.18,.76,.42,.67,.72-1.72,4.22-2.57,6.33-4.29,10.56Z"/><path class="ac" d="M981.63,188.89c1.38-1.07,2.87-2.34,4.48-3.8,1.6-1.46,3.44-3.24,5.51-5.33,.69-.6,1.32-1.25,1.89-1.97,.57-.72,1.2-1.42,1.89-2.11,0,.05,.06,.19,.18,.41,.12,.22,.22,.51,.3,.85,.07,.35,.05,.75-.07,1.22-.12,.47-.46,.97-1,1.52-.44,.44-.67,.67-1.11,1.11-2.71,2.87-5.22,5.27-7.51,7.19-2.29,1.92-4.4,3.5-6.33,4.74-1.63,3.42-2.44,5.14-4.07,8.57-.99,1.66-2.16,2.87-3.51,3.62-1.36,.75-2.68,1.16-3.96,1.22-1.28,.06-2.43-.15-3.44-.63-1.01-.49-1.68-1.15-2-2-.32-.84-.18-1.8,.41-2.87,.59-1.07,1.82-2.15,3.7-3.23,.84-.49,1.65-.92,2.44-1.3s1.55-.76,2.29-1.14c.54-1.16,1.05-2.26,1.52-3.32,.47-1.06,.92-2.11,1.37-3.16-1.43,1.14-2.9,2.15-4.4,3.04-1.5,.88-2.85,1.36-4.03,1.42-1.28,.07-2.26-.14-2.92-.62-.67-.48-1.05-1.14-1.15-1.97-.15-1.32-.01-2.85,.41-4.57,.42-1.73,1.1-3.49,2.03-5.29,.94-1.8,2.08-3.58,3.44-5.32,1.36-1.74,2.87-3.31,4.55-4.69,1.68-1.38,3.49-2.48,5.44-3.31,1.95-.83,3.98-1.22,6.03-1.24,1.46-.02,2.79,.18,3.92,.63,1.13,.45,1.76,1.18,1.85,2.16,.06,.63-.1,1.23-.44,1.78-.35,.55-.79,1.02-1.33,1.42,.44,.09,.82,.2,1.11,.32,.3,.12,.39,.25,.3,.4-3.11,6.49-4.66,9.75-7.77,16.28Zm-11.25,8.99c-.2,.11-.37,.2-.52,.28-.15,.08-.3,.17-.44,.28-1.58,.96-2.58,1.84-3,2.63-.42,.79-.54,1.37-.37,1.76,.17,.38,.53,.53,1.07,.42,.54-.1,1.01-.56,1.41-1.36,.74-1.6,1.11-2.41,1.85-4.01Zm8.58-24.67c1.58-.3,2.85-.78,3.81-1.47,.96-.69,1.64-1.48,2.03-2.38,.1-.4,0-.8-.3-1.21s-.96-.39-1.92-.07c-.85,.29-1.83,.86-2.81,1.78-.99,.92-1.95,2.01-2.89,3.28-.94,1.27-1.83,2.63-2.66,4.09-.84,1.46-1.58,2.9-2.22,4.31-.64,1.41-1.15,2.69-1.52,3.84-.37,1.15-.56,2.05-.56,2.69,0,.44,.22,.63,.67,.56,.44-.07,.99-.3,1.63-.7,.64-.4,1.33-.89,2.07-1.49,.74-.6,1.41-1.2,2-1.81,.79-1.66,1.58-3.36,2.37-5.11s1.68-3.58,2.66-5.48c-1.14-.07-1.92-.34-2.37-.82Z"/></g><g><path class="ao" d="M680.54,186.39c1.86-.3,3.22-.29,4.03,.09,.81,.39,1.25,.82,1.29,1.31,.25,.48,.31,.99,.19,1.54-.12,.55-.31,1.06-.55,1.52-.84,1.49-1.76,3.11-2.77,4.86-1.01,1.75-2.1,3.6-3.25,5.55-1.16,1.95-2.34,3.96-3.55,6.03-1.21,2.07-2.4,4.12-3.59,6.16,2.66-.49,5.35-.91,8.06-1.26,2.71-.35,5.7-.7,8.95-1.06,1.08-2.21,2.22-4.51,3.4-6.9,1.18-2.39,2.35-4.73,3.51-7,1.16-2.27,2.27-4.43,3.33-6.48,1.06-2.05,2.01-3.88,2.85-5.49,1.38-.03,2.49,.09,3.33,.37,.84,.28,1.46,.68,1.85,1.18s.59,1.06,.59,1.68-.1,1.21-.3,1.77c-.79,2.05-1.7,4.36-2.74,6.9-1.04,2.54-2.13,5.18-3.29,7.91-1.16,2.73-2.33,5.45-3.51,8.17-1.18,2.72-2.32,5.32-3.4,7.78-1.08,2.46-2.07,4.72-2.96,6.76-.89,2.05-1.6,3.73-2.15,5.06-1.48-.08-2.84-.26-4.07-.54-1.23-.28-2.22-.71-2.96-1.3-.74-.59-1.17-1.36-1.29-2.32-.12-.95,.16-2.12,.85-3.5,1.98-3.98,2.97-5.98,4.96-9.98-3.26,.55-6.42,1.18-9.51,1.92-3.08,.73-6.13,1.49-9.14,2.28-2.07,3.45-3.97,6.58-5.7,9.38-1.73,2.8-3.08,5-4.07,6.61-1.48-.15-2.79-.4-3.92-.74-1.13-.34-2.01-.82-2.63-1.42-.62-.61-.89-1.39-.81-2.35,.07-.96,.6-2.12,1.59-3.47,.39-.55,.85-1.2,1.37-1.95,.52-.75,1.1-1.63,1.74-2.63-2.52,.71-4.93,1.36-7.25,1.96-2.32,.6-4.61,1.12-6.88,1.56,.35-1.04,.75-2,1.22-2.89,.47-.89,1.12-1.71,1.96-2.45,.84-.74,1.94-1.42,3.29-2.03,1.36-.61,3.11-1.17,5.22-1.64,1.27-.28,2.49-.55,3.62-.83,1.13-.28,2.27-.54,3.4-.77,1.38-2.12,2.84-4.37,4.36-6.75,1.53-2.38,3.06-4.75,4.59-7.09,1.53-2.34,3.04-4.62,4.55-6.83,1.5-2.21,2.92-4.24,4.25-6.1-3.26,.7-6.07,1.62-8.43,2.77-2.37,1.15-4.36,2.41-5.99,3.78-1.63,1.37-2.9,2.81-3.81,4.32-.91,1.51-1.55,2.98-1.92,4.43-.37,1.44-.51,2.82-.41,4.12,.1,1.3,.37,2.42,.81,3.34-2.52-.07-4.58-.45-6.18-1.14-1.6-.68-2.77-1.57-3.51-2.64-.74-1.07-1.05-2.27-.92-3.58,.12-1.31,.68-2.67,1.66-4.05,1.21-1.69,2.86-3.26,4.88-4.72,2.02-1.45,4.34-2.78,6.95-3.98,2.61-1.2,5.51-2.24,8.69-3.11,3.18-.88,6.59-1.55,10.1-2.11Z"/><path class="ag" d="M726.04,202.9c.08,1.14-.57,2.34-1.85,3.48,1.04,.02,1.53,.18,1.48,.48-.84,2.32-1.78,4.55-2.81,6.67-1.04,2.12-1.89,4.33-2.66,6.42-.64,1.73-.81,2.59-.37,2.49,.44-.1,1.26-.78,2.44-2.03s2.61-2.89,4.29-4.93c1.68-2.03,3.4-4.1,5.18-6.21,.05,.09,.14,.24,.26,.45,.12,.21,.2,.47,.22,.79,.02,.32-.04,.72-.19,1.21s-.47,1.01-.96,1.57c-1.38,1.61-2.6,3.03-3.66,4.28-1.06,1.24-2.07,2.37-3.03,3.37-.96,1.01-1.95,1.94-2.96,2.8-1.01,.86-2.13,1.76-3.37,2.69-.69,.52-1.41,.89-2.15,1.1-.74,.21-1.43,.28-2.07,.23-.64-.05-1.18-.23-1.63-.52-.44-.3-.72-.71-.74-1.18-.04-.75,.15-1.79,.44-3.01-1.53,1.45-3.16,2.77-4.88,3.96-1.73,1.19-3.25,1.85-4.59,1.98-1.28,.12-2.26-.04-2.92-.5-.67-.46-1.05-1.1-1.15-1.93-.15-1.31-.01-2.85,.41-4.59,.42-1.74,1.1-3.53,2.03-5.37,.94-1.84,2.08-3.66,3.44-5.48,1.36-1.81,2.87-3.46,4.55-4.94,1.68-1.48,3.49-2.71,5.44-3.7,1.95-.98,3.98-1.55,6.03-1.77,1.46-.16,2.79-.1,3.92,.23,1.13,.33,1.78,1.01,1.85,1.95Zm-10.8,5.57c1.58-.42,2.85-1.03,3.81-1.81,.96-.78,1.64-1.64,2.03-2.57,.1-.41,0-.8-.3-1.19-.3-.38-.95-.3-1.92,.12-.85,.37-1.83,1.03-2.81,2.02-.99,1-1.95,2.17-2.88,3.5-.94,1.34-1.83,2.76-2.66,4.28-.84,1.52-1.58,3-2.22,4.45-.64,1.45-1.15,2.76-1.52,3.93-.37,1.17-.55,2.08-.55,2.72,0,.49,.26,.66,.78,.51,.52-.15,1.12-.48,1.81-1,.69-.52,1.44-1.14,2.26-1.87,.81-.73,1.52-1.45,2.11-2.15,.69-1.75,1.44-3.54,2.26-5.36,.81-1.82,1.56-3.48,2.26-4.99-1.23,.04-2.05-.16-2.44-.61Z"/><path class="ar" d="M740.83,201.48c.41-.35,.62-.53,1.04-.88,2.42-2.01,5.02-3.28,7.77-3.77,1.86-.33,3.13,.11,3.77,1.3,.64,1.19,.79,2.78,.44,4.78-.35,2-1.07,4.23-2.18,6.68s-2.45,4.79-4.03,6.99c-1.58,2.2-3.3,4.09-5.18,5.65-1.87,1.57-3.76,2.52-5.55,2.72-1.21,.14-2.22-.15-2.96-.79-.74-.64-1.28-1.41-1.63-2.3-1.89,4.54-2.84,6.8-4.73,11.33-.54,1.4-1.04,2.51-1.48,3.33-.44,.82-.91,1.47-1.41,1.95-.49,.48-1.01,.8-1.55,.97-.54,.16-1.18,.29-1.92,.38-.89,.11-1.53-.09-1.92-.59-.39-.5-.39-1.29,0-2.37,.35-.97,.88-2.39,1.59-4.22,.72-1.84,1.55-3.88,2.52-6.15,.96-2.26,1.99-4.66,3.07-7.18,1.08-2.53,2.16-4.98,3.22-7.36,1.06-2.38,2.07-4.56,3.03-6.53,.96-1.98,1.76-3.57,2.4-4.79,.44-.75,1.06-1.3,1.85-1.65,.79-.35,1.56-.57,2.33-.65,.76-.08,1.42-.05,1.96,.1,.54,.15,.74,.35,.59,.62-.41,.97-.62,1.46-1.04,2.44Zm4.66-.95c-.29,.03-.49,.08-.59,.12-.1,.04-.19,.08-.26,.11-.07,.04-.16,.1-.26,.18-.1,.09-.27,.24-.52,.41-.37,.26-.74,.57-1.04,.96-.3,.39-.51,.79-.63,1.2-.12,.41-.1,.8,.07,1.17,.17,.37,.53,.64,1.07,.81-1.18,.41-2.11,.59-2.77,.53-.67-.06-1.12-.24-1.37-.55-1.81,4.27-2.71,6.41-4.51,10.67-.95,2.29-1.42,3.43-2.37,5.71-.2-.42-.32-.83-.37-1.25-.05-.41-.02-.84,0-1.22,.05-.83,.14-1.73,.41-2.53,.27-.8,.73-1.86,1.37-3.18,.65,.33,.98,.49,1.63,.82-.84,1.99-1.28,3.64-1.33,4.95-.05,1.31,.51,1.84,1.63,1.67,.62-.1,1.45-.68,2.44-1.77,.99-1.1,1.99-2.42,3-3.96,1.01-1.55,1.97-3.21,2.89-4.99,.91-1.78,1.63-3.41,2.15-4.89,.52-1.48,.75-2.7,.7-3.65-.05-.95-.52-1.42-1.33-1.33Z"/><path class="as" d="M766.65,197.65c.41-.36,.62-.54,1.04-.9,2.42-2.06,5.02-3.37,7.77-3.9,1.86-.36,3.13,.06,3.77,1.24,.64,1.18,.79,2.77,.44,4.77-.35,2.01-1.07,4.24-2.18,6.72s-2.45,4.82-4.03,7.05c-1.58,2.23-3.3,4.14-5.18,5.74-1.87,1.6-3.76,2.59-5.55,2.83-1.21,.16-2.22-.1-2.96-.73-.74-.63-1.28-1.38-1.63-2.27-1.89,4.58-2.84,6.86-4.73,11.44-.54,1.41-1.04,2.53-1.48,3.36-.44,.83-.91,1.49-1.41,1.98-.49,.49-1.01,.83-1.55,1-.54,.18-1.18,.32-1.92,.43-.89,.13-1.53-.05-1.92-.54-.39-.49-.39-1.28,0-2.37,.35-.98,.88-2.41,1.59-4.26,.72-1.85,1.55-3.92,2.52-6.21,.96-2.29,1.99-4.7,3.07-7.25,1.08-2.55,2.16-5.03,3.22-7.43,1.06-2.4,2.07-4.6,3.03-6.6,.96-2,1.76-3.61,2.4-4.84,.44-.76,1.06-1.32,1.85-1.69,.79-.37,1.57-.6,2.33-.69,.76-.09,1.42-.07,1.96,.06,.54,.14,.74,.34,.59,.61-.41,.98-.62,1.47-1.04,2.46Zm4.66-1.03c-.29,.04-.49,.09-.59,.13-.1,.04-.19,.08-.26,.12-.07,.04-.16,.1-.26,.19-.1,.09-.27,.24-.52,.42-.37,.26-.74,.59-1.04,.98-.3,.39-.51,.8-.63,1.21-.12,.41-.1,.8,.07,1.17,.17,.37,.53,.63,1.07,.79-1.18,.44-2.11,.63-2.77,.59-.67-.04-1.12-.22-1.37-.53-1.81,4.31-2.71,6.46-4.51,10.76-.95,2.31-1.42,3.46-2.37,5.76-.2-.41-.32-.83-.37-1.24-.05-.41-.02-.84,0-1.22,.05-.83,.14-1.73,.41-2.54,.27-.81,.73-1.87,1.37-3.2,.65,.31,.98,.47,1.63,.79-.84,2-1.28,3.66-1.33,4.98-.05,1.32,.51,1.83,1.63,1.64,.62-.11,1.45-.7,2.44-1.82,.99-1.12,1.99-2.45,3-4.02,1.01-1.56,1.97-3.25,2.89-5.04,.91-1.8,1.63-3.44,2.15-4.93,.52-1.49,.75-2.71,.7-3.66-.05-.95-.52-1.41-1.33-1.3Z"/><path class="al" d="M798.09,212.24c1.43-1.28,2.97-2.79,4.62-4.52,1.65-1.74,3.54-3.87,5.66-6.41,.64-.7,1.26-1.46,1.85-2.28,.59-.82,1.23-1.63,1.92-2.44,0,.05,.06,.17,.19,.38,.12,.2,.22,.47,.3,.8,.07,.33,.06,.74-.04,1.23-.1,.49-.42,1.05-.96,1.68-.47,.53-.71,.79-1.18,1.31-2.76,3.39-5.31,6.21-7.66,8.49-2.34,2.27-4.48,4.16-6.4,5.67-1.57,3.61-2.35,5.41-3.92,9.02-.99,1.79-2.16,3.15-3.51,4.07-1.36,.92-2.68,1.48-3.96,1.69-1.28,.21-2.42,.13-3.4-.25-.99-.38-1.64-.98-1.96-1.79-.32-.81-.2-1.78,.37-2.91,.57-1.13,1.81-2.34,3.74-3.65,1.81-1.16,2.71-1.74,4.51-2.89,.84-2.01,1.68-4.05,2.52-6.12,.84-2.06,1.7-4.13,2.59-6.21-.89,1.04-1.7,1.99-2.44,2.85-.74,.86-1.49,1.69-2.26,2.49-.77,.79-1.55,1.55-2.37,2.28-.81,.73-1.74,1.47-2.7,2.22-.69,.54-1.44,.94-2.26,1.15-.81,.21-1.55,.24-2.22,.1-.67-.14-1.2-.42-1.59-.85-.39-.43-.52-1.03-.37-1.79,.35-1.73,.85-3.55,1.52-5.46,.67-1.91,1.42-3.82,2.26-5.73,.84-1.91,1.75-3.84,2.74-5.78,.99-1.94,1.97-3.8,2.96-5.59,.44-.76,1.07-1.34,1.89-1.72,.81-.38,1.6-.61,2.37-.69,.76-.08,1.42-.05,1.96,.08,.54,.13,.76,.33,.67,.59-3.26,7.68-4.88,11.52-8.14,19.19-.44,1.16-.63,1.89-.55,2.2,.07,.31,.33,.31,.78,.02s1.05-.86,1.81-1.71c.76-.84,1.64-1.84,2.63-2.99,.99-1.15,2.05-2.41,3.18-3.79,1.13-1.37,2.56-2.83,3.4-4.2,.82-1.32,1.52-3.19,2.33-4.76,.81-1.57,1.69-3.15,2.63-4.74,.44-.77,1.06-1.34,1.85-1.72,.79-.38,1.57-.61,2.33-.69,.76-.08,1.42-.06,1.96,.07,.54,.13,.76,.33,.67,.59-4.11,9.41-6.17,14.11-10.28,23.5Zm-11.1,10.3c-.33,.23-.49,.35-.81,.58-1.58,1.15-2.58,2.14-3,2.97-.42,.83-.54,1.43-.37,1.8,.17,.37,.52,.47,1.04,.31,.52-.16,.97-.67,1.37-1.52,.71-1.66,1.07-2.49,1.78-4.14Z"/><path class="an" d="M866.52,195.85c-3.11,3.61-6.71,6.72-10.8,9.34-4.09,2.62-8.48,4.54-13.09,5.78-2.91,.78-5.51,1.2-7.81,1.22-2.29,.02-4.23-.21-5.81-.71-1.58-.49-2.77-1.24-3.59-2.23-.81-.99-1.14-2.15-1-3.45,.1-.99,.59-2.12,1.48-3.36,.89-1.24,2.05-2.46,3.48-3.67,1.43-1.21,3.09-2.34,4.99-3.41,1.9-1.06,3.93-1.95,6.1-2.67-2.66-.14-4.85-.67-6.55-1.58-1.7-.92-2.96-2.04-3.77-3.38-.81-1.34-1.23-2.79-1.26-4.33-.03-1.55,.28-3.04,.92-4.49,1.08-2.21,2.58-4.34,4.48-6.39,1.9-2.05,4.09-3.92,6.58-5.6,2.49-1.68,5.22-3.1,8.17-4.26,2.96-1.16,6-1.94,9.1-2.36,3.98-.54,7.29-.43,9.88,.36,2.59,.8,4.03,2.43,4.33,4.9,.1,.72-.06,1.61-.48,2.66-.42,1.05-1.04,2.12-1.85,3.21-.81,1.09-1.8,2.16-2.96,3.21-1.16,1.05-2.44,1.91-3.85,2.58-1.41,.67-2.9,1.11-4.48,1.32-1.58,.21-3.18,.03-4.81-.54,2.37-1.72,4.4-3.59,6.1-5.59,1.7-2,2.59-3.85,2.77-5.41,.16-1.33-.04-2.51-.7-3.44-.67-.93-2.11-1.21-4.33-.85-2.96,.49-5.76,1.49-8.4,3.02-2.64,1.53-4.9,3.34-6.77,5.43-.54,.59-1.12,1.44-1.74,2.55-.62,1.12-1.08,2.33-1.41,3.64-.32,1.31-.42,2.64-.3,3.97,.12,1.33,.65,2.51,1.59,3.54,.94,1.02,2.38,1.79,4.33,2.3,1.95,.51,4.57,.61,7.88,.31,.34,0,.39,.22,.15,.68-.25,.46-.62,1-1.11,1.63-.49,.63-1.05,1.24-1.66,1.83-.62,.6-1.13,1.07-1.44,1.2-1.25,.53-3.21,1.04-5.03,1.92-1.82,.88-3.54,1.88-5.14,3.02-1.6,1.14-2.91,2.33-3.92,3.59-1.01,1.26-1.46,2.45-1.37,3.56,.11,1.3,1.01,2.29,2.74,2.93,1.73,.64,4.25,.54,7.55-.25,1.47-.35,3.11-.92,4.88-1.71s3.58-1.74,5.4-2.86c1.82-1.12,3.62-2.36,5.4-3.74s3.54-2.86,5.03-4.44c1.14-1.2,2.32-2.59,3.55-3.97,1.23-1.38,2.42-2.8,3.55-4.26,0,.05,.05,.18,.15,.38,.1,.21,.17,.48,.22,.82,.05,.34,0,.75-.15,1.24-.15,.49-.47,1.05-.96,1.67-.69,.95-1.41,1.84-2.15,2.67-.74,.83-1.46,1.65-2.15,2.45Z"/><path class="aq" d="M877.17,187.3c2.07-2.49,3.85-4.57,5.33-6.25,1.48-1.68,2.77-3.03,3.88-4.06,1.11-1.03,2.03-1.77,2.77-2.22,.74-.45,1.41-.72,2-.81,.84-.12,1.53-.01,2.07,.33,.54,.34,.83,.93,.89,1.76,.04,.68-.06,1.48-.33,2.38-.27,.9-.68,2.03-1.22,3.39-.54,1.36-1.23,2.99-2.07,4.88-.84,1.9-1.84,4.18-2.88,6.78-.7,1.75-.79,2.59-.3,2.45,.49-.15,1.34-.86,2.55-2.15,1.21-1.28,2.69-2.97,4.44-5.04,1.75-2.07,3.51-4.17,5.29-6.29,0,.05,.06,.18,.18,.38s.21,.48,.26,.82c.05,.34,.01,.75-.11,1.24-.12,.49-.46,1.04-1,1.65-1.43,1.63-2.68,3.07-3.74,4.33-1.06,1.26-2.08,2.4-3.07,3.43-.99,1.03-1.97,1.99-2.96,2.87-.99,.88-2.1,1.81-3.33,2.78-.69,.55-1.46,.92-2.29,1.12s-1.6,.23-2.29,.09c-.69-.14-1.23-.43-1.63-.86s-.52-1.03-.37-1.79c.39-1.93,1.05-4.09,1.96-6.48,.91-2.38,2.01-4.88,3.29-7.49,.34-.79,.36-1.25,.04-1.37-.32-.12-.86,.16-1.59,.87-.54,.52-1.15,1.17-1.81,1.94-.67,.77-1.37,1.58-2.11,2.43-.74,.85-1.48,1.71-2.22,2.56-.74,.85-1.43,1.65-2.07,2.39-.56,1.42-.84,2.13-1.41,3.55-.54,1.42-1.06,2.55-1.55,3.39-.49,.84-.99,1.5-1.48,1.97-.49,.47-1.02,.8-1.59,.99-.57,.19-1.19,.36-1.81,.44-.81,.11-1.48-.11-1.92-.58-.44-.47-.44-1.25-.07-2.28,.51-1.47,1.1-3.2,1.81-5.06,.71-1.86,1.49-3.8,2.33-5.81,.84-2.01,1.74-4.04,2.7-6.09,.96-2.05,1.96-3.99,3-5.83,.39-.75,.99-1.32,1.78-1.72,.79-.39,1.56-.62,2.33-.69,.76-.07,1.42-.03,1.96,.11,.54,.14,.76,.36,.67,.68-1.72,4.34-2.57,6.52-4.29,10.86Z"/><path class="ap" d="M922.08,160.46c.39-.74,1-1.29,1.81-1.65,.81-.36,1.63-.59,2.44-.68,.81-.09,1.52-.05,2.11,.1,.59,.16,.84,.37,.74,.62-.25,.77-.73,1.96-1.44,3.59-.71,1.63-1.53,3.47-2.44,5.52-.91,2.05-1.88,4.19-2.89,6.43-1.01,2.24-1.97,4.37-2.89,6.4-.91,2.03-1.71,3.84-2.4,5.43-.69,1.59-1.16,2.74-1.41,3.46-.69,1.76-.81,2.58-.37,2.45,.44-.13,1.26-.82,2.44-2.07,1.18-1.25,2.61-2.89,4.29-4.9,1.68-2.02,3.4-4.06,5.18-6.13,0,.05,.07,.18,.22,.38,.15,.21,.25,.48,.3,.82,.05,.34,0,.75-.15,1.24-.15,.48-.49,1.03-1.04,1.63-1.38,1.58-2.6,2.99-3.66,4.22-1.06,1.23-2.07,2.35-3.03,3.35-.96,1-1.95,1.93-2.96,2.79-1.01,.86-2.13,1.76-3.37,2.71-.69,.53-1.41,.9-2.15,1.12-.74,.22-1.43,.3-2.07,.26-.64-.04-1.18-.21-1.63-.49-.44-.29-.72-.7-.74-1.16-.03-.65,.25-1.78,.74-3.28-.74,.74-1.54,1.47-2.41,2.2-.86,.73-1.73,1.4-2.59,2.01-.86,.61-1.7,1.12-2.52,1.52-.81,.41-1.57,.66-2.26,.76-1.28,.18-2.26,.06-2.92-.37-.66-.42-1.05-1.05-1.15-1.87-.15-1.3-.01-2.85,.41-4.61,.42-1.76,1.1-3.58,2.03-5.47,.94-1.88,2.08-3.75,3.44-5.62,1.36-1.86,2.87-3.56,4.55-5.09,1.68-1.53,3.49-2.8,5.44-3.82,1.95-1.01,3.98-1.6,6.03-1.83,.24-.03,.5-.06,.78-.09,.27-.03,.53-.04,.78-.02,1.89-3.96,2.84-5.93,4.73-9.88Zm-12.21,17.98c1.28-.41,2.38-.92,3.29-1.52,.91-.61,1.62-1.28,2.11-2.04,.1-.26,.2-.48,.3-.67,.1-.18,.23-.43,.3-.66,.08-.3-.09-.63-.41-.84-.32-.21-.92-.13-1.81,.22-.89,.36-1.79,1.04-2.7,2.04-.91,1-1.81,2.18-2.7,3.53-.89,1.35-1.73,2.79-2.52,4.32-.79,1.54-1.48,3.02-2.07,4.46s-1.06,2.74-1.41,3.92c-.34,1.18-.52,2.09-.52,2.73,0,.54,.3,.69,.89,.43,.59-.25,1.29-.7,2.11-1.35,.81-.65,1.65-1.4,2.52-2.25,.86-.85,1.57-1.61,2.11-2.27,.54-1.45,1.17-3,1.89-4.64,.71-1.64,1.44-3.3,2.18-4.97-.84,.15-1.57,.21-2.18,.16-.62-.05-1.07-.25-1.37-.6Z"/><path class="ay" d="M920.97,192.84c.35-1.72,.85-3.51,1.52-5.39,.67-1.88,1.42-3.75,2.26-5.62s1.75-3.75,2.74-5.63c.99-1.88,1.97-3.69,2.96-5.42,.44-.74,1.07-1.27,1.89-1.6,.81-.33,1.6-.51,2.37-.54,.76-.03,1.42,.04,1.96,.21,.54,.17,.76,.38,.67,.64-3.26,7.45-4.88,11.18-8.14,18.66-.69,1.75-.79,2.56-.3,2.44,.49-.13,1.36-.81,2.59-2.05,1.23-1.24,2.7-2.86,4.4-4.85,1.7-1.99,3.44-4.01,5.22-6.04,0,.05,.06,.18,.18,.39s.21,.49,.26,.83c.05,.34,.01,.75-.11,1.23-.12,.48-.46,1.02-1,1.61-1.43,1.56-2.66,2.95-3.7,4.16-1.04,1.21-2.04,2.31-3,3.29-.96,.99-1.94,1.9-2.92,2.74-.99,.84-2.12,1.73-3.4,2.66-.69,.52-1.44,.86-2.26,1.02-.81,.16-1.55,.16-2.22,0-.67-.17-1.19-.48-1.59-.93-.39-.45-.52-1.05-.37-1.81Zm14.57-30.2c.6-.82,1.45-1.49,2.59-1.92,1.13-.43,2.15-.47,3.03-.17,.92,.32,1.48,.88,1.63,1.7,.15,.83-.14,1.67-.81,2.51-.69,.88-1.59,1.56-2.7,1.99-1.11,.43-2.12,.47-3,.18-.92-.31-1.47-.86-1.59-1.69s.19-1.7,.85-2.6Z"/><path class="bc" d="M946.71,178.71c2.07-2.34,3.85-4.3,5.33-5.87,1.48-1.57,2.77-2.82,3.88-3.76,1.11-.94,2.03-1.61,2.77-2,.74-.39,1.41-.61,2-.65,.84-.05,1.53,.11,2.07,.5,.54,.39,.83,1,.89,1.83,.04,.68-.06,1.47-.33,2.35-.27,.88-.68,1.98-1.22,3.29-.54,1.32-1.23,2.89-2.07,4.72-.84,1.83-1.84,4.03-2.88,6.56-.7,1.7-.79,2.53-.3,2.42,.49-.11,1.34-.76,2.55-1.95,1.21-1.19,2.69-2.75,4.44-4.68,1.75-1.93,3.51-3.87,5.29-5.84,0,.05,.06,.18,.18,.4,.12,.22,.21,.5,.26,.84,.05,.34,.01,.75-.11,1.23-.12,.48-.46,1-1,1.57-1.43,1.5-2.68,2.84-3.74,4.01-1.06,1.17-2.08,2.23-3.07,3.18-.99,.95-1.97,1.83-2.96,2.63-.99,.81-2.1,1.65-3.33,2.52-.69,.49-1.46,.81-2.29,.94s-1.6,.11-2.29-.08c-.69-.19-1.23-.52-1.63-.98s-.52-1.07-.37-1.82c.39-1.91,1.05-4.02,1.96-6.33,.91-2.31,2.01-4.73,3.29-7.24,.34-.77,.36-1.22,.04-1.37-.32-.15-.86,.1-1.59,.75-.54,.48-1.15,1.09-1.81,1.8-.67,.72-1.37,1.48-2.11,2.28-.74,.8-1.48,1.6-2.22,2.4-.74,.8-1.43,1.55-2.07,2.25-.56,1.38-.84,2.07-1.41,3.45-.54,1.38-1.06,2.48-1.55,3.28-.49,.81-.99,1.43-1.48,1.88-.49,.44-1.02,.74-1.59,.89-.57,.15-1.19,.28-1.81,.32-.81,.06-1.48-.2-1.92-.7-.44-.5-.44-1.27-.07-2.29,.52-1.44,1.1-3.13,1.81-4.95,.71-1.82,1.49-3.71,2.33-5.66,.84-1.95,1.74-3.92,2.7-5.91,.96-1.99,1.96-3.86,3-5.63,.39-.72,.99-1.26,1.78-1.6,.79-.34,1.57-.51,2.33-.53,.76-.01,1.42,.07,1.96,.25,.54,.18,.76,.42,.67,.72-1.72,4.22-2.57,6.33-4.29,10.56Z"/><path class="af" d="M982.96,188.13c1.38-1.07,2.87-2.34,4.48-3.8,1.6-1.46,3.44-3.24,5.51-5.33,.69-.6,1.32-1.25,1.89-1.97,.57-.72,1.2-1.42,1.89-2.11,0,.05,.06,.19,.18,.41,.12,.22,.22,.51,.3,.85,.07,.35,.05,.75-.07,1.22-.12,.47-.46,.97-1,1.52-.44,.44-.67,.67-1.11,1.11-2.71,2.87-5.22,5.27-7.51,7.19-2.29,1.92-4.4,3.5-6.33,4.74-1.63,3.42-2.44,5.14-4.07,8.57-.99,1.66-2.16,2.87-3.51,3.62-1.36,.75-2.68,1.16-3.96,1.22-1.28,.06-2.43-.15-3.44-.63-1.01-.49-1.68-1.15-2-2-.32-.84-.18-1.8,.41-2.87,.59-1.07,1.82-2.15,3.7-3.23,.84-.49,1.65-.92,2.44-1.3,.79-.38,1.55-.76,2.29-1.14,.54-1.16,1.05-2.26,1.52-3.32,.47-1.06,.92-2.11,1.37-3.16-1.43,1.14-2.9,2.15-4.4,3.04-1.5,.88-2.85,1.36-4.03,1.42-1.28,.07-2.26-.14-2.92-.62-.67-.48-1.05-1.14-1.15-1.97-.15-1.32-.01-2.85,.41-4.57,.42-1.73,1.1-3.49,2.03-5.29,.94-1.8,2.08-3.58,3.44-5.32,1.36-1.74,2.87-3.31,4.55-4.69,1.68-1.38,3.49-2.48,5.44-3.31,1.95-.83,3.98-1.22,6.03-1.24,1.46-.02,2.79,.18,3.92,.63,1.13,.45,1.76,1.18,1.85,2.16,.06,.63-.1,1.23-.44,1.78-.35,.55-.79,1.02-1.33,1.42,.44,.09,.82,.2,1.11,.32,.3,.12,.39,.25,.3,.4-3.11,6.49-4.66,9.75-7.77,16.28Zm-11.25,8.99c-.2,.11-.37,.2-.52,.28-.15,.08-.3,.17-.44,.28-1.58,.96-2.58,1.84-3,2.63-.42,.79-.54,1.37-.37,1.76,.17,.38,.53,.53,1.07,.42,.54-.1,1.01-.56,1.41-1.36,.74-1.6,1.11-2.41,1.85-4.01Zm8.58-24.67c1.58-.3,2.85-.79,3.81-1.47,.96-.69,1.64-1.48,2.03-2.38,.1-.4,0-.8-.3-1.21-.3-.41-.96-.39-1.92-.07-.85,.29-1.83,.86-2.81,1.78-.99,.92-1.95,2.01-2.89,3.28-.94,1.27-1.83,2.63-2.66,4.09-.84,1.46-1.58,2.9-2.22,4.31-.64,1.41-1.15,2.69-1.52,3.84-.37,1.15-.56,2.05-.56,2.69,0,.44,.22,.63,.67,.56,.44-.07,.99-.3,1.63-.7,.64-.4,1.33-.89,2.07-1.49,.74-.6,1.41-1.2,2-1.81,.79-1.66,1.58-3.36,2.37-5.11s1.68-3.58,2.66-5.48c-1.14-.07-1.92-.34-2.37-.82Z"/></g><g><path class="ac" d="M814.66,225.46l-3.12-.36v-.96h6.47v.96l-2.88,.36h-.48Zm8.22-1.32h.77l4.34,13.45h-.6l3.72-13.45h1.2l-4.36,16.23h-.96l-4.6-13.69h.77l-4.31,13.69h-.94l-4.67-16.23h2.23l3.62,13.45h-.67l4.48-13.45Zm.22,1.32l-3.07-.36v-.96h6.47v.96l-2.92,.36h-.48Zm7.93,0l-2.52-.36v-.96h5.47v.96l-2.47,.36h-.48Z"/><path class="ac" d="M835.3,225.1v-.96h3.36v1.32h-.24l-3.12-.36Zm3.36,13.78v1.32h-3.36v-.96l3.12-.36h.24Zm-1.08-7.31c0-2.47,0-4.96-.07-7.43h2.3c-.07,2.42-.07,4.91-.07,7.43v.91c0,2.76,0,5.25,.07,7.72h-2.3c.07-2.42,.07-4.91,.07-7.43v-1.2Zm7.72-7.43l1.08,1.2h-7.72v-1.2h8.56l.17,4.27h-1.34l-.74-4.27Zm-1.22,8.41h-5.42v-1.1h5.42v1.1Zm3.79,3.38l-.17,4.27h-9.04v-1.2h8.2l-1.08,1.2,.74-4.27h1.34Zm-4.55-4.24l.36-2.54h1.08v5.68h-1.08l-.36-2.66v-.48Z"/><path class="ac" d="M849.78,225.1v-.96h6.71v.96l-3.12,.36h-.48l-3.12-.36Zm3.36,13.78v1.32h-3.36v-.96l3.12-.36h.24Zm-1.15-14.74h2.3c-.07,2.47-.07,4.96-.07,7.43v1.68c0,2.04,0,4.53,.07,6.95h-2.3c.07-2.47,.07-4.96,.07-7.43v-1.2c0-2.52,0-5.01-.07-7.43Zm9.95,11.55l-.24,4.51h-8.56v-1.2h7.72l-1.32,1.2,.96-4.51h1.44Z"/><path class="ac" d="M863.61,225.1v-.96h6.71v.96l-3.12,.36h-.48l-3.12-.36Zm3.36,13.78v1.32h-3.36v-.96l3.12-.36h.24Zm-1.15-14.74h2.3c-.07,2.47-.07,4.96-.07,7.43v1.68c0,2.04,0,4.53,.07,6.95h-2.3c.07-2.47,.07-4.96,.07-7.43v-1.2c0-2.52,0-5.01-.07-7.43Zm9.95,11.55l-.24,4.51h-8.56v-1.2h7.72l-1.32,1.2,.96-4.51h1.44Z"/><path class="ac" d="M877.57,239.25l2.52-.36h.48l2.76,.36v.96h-5.75v-.96Zm1.51-14.36l1.49,.58-2.88-.36v-.96h3.6l9.95,13.69v2.54h-.77l-11.39-15.49Zm.53-.74l1.2,.96v15.1h-1.2v-16.06Zm7.91,0h5.75v.96l-2.4,.36h-.48l-2.88-.36v-.96Zm2.52,0h1.2v16.23l-1.2-1.2v-15.03Z"/><path class="ac" d="M895.07,225.1v-.96h3.36v1.32h-.24l-3.12-.36Zm3.36,13.78v1.32h-3.36v-.96l3.12-.36h.24Zm-1.08-7.31c0-2.47,0-4.96-.07-7.43h2.3c-.07,2.42-.07,4.91-.07,7.43v.91c0,2.76,0,5.25,.07,7.72h-2.3c.07-2.42,.07-4.91,.07-7.43v-1.2Zm7.72-7.43l1.08,1.2h-7.72v-1.2h8.56l.17,4.27h-1.34l-.74-4.27Zm-1.22,8.41h-5.42v-1.1h5.42v1.1Zm3.79,3.38l-.17,4.27h-9.04v-1.2h8.2l-1.08,1.2,.74-4.27h1.34Zm-4.55-4.24l.36-2.54h1.08v5.68h-1.08l-.36-2.66v-.48Z"/><path class="ac" d="M917.8,236.44c0-1.56-.93-2.25-3.02-3.07l-.91-.36c-2.44-.96-4.12-2.35-4.12-4.79,0-2.76,2.33-4.43,5.37-4.43,1.61,0,2.88,.5,3.91,1.27l-.14,3.12h-1.44l-.67-3.62,1.53,.79v1.2c-1.17-1.15-2.06-1.56-3.33-1.56-1.87,0-3.28,.94-3.28,2.73,0,1.51,.98,2.4,2.73,3.07l.94,.36c3.16,1.22,4.39,2.61,4.39,4.87,0,2.83-2.37,4.55-5.66,4.55-1.8,0-3.55-.58-4.65-1.27l.14-3.36h1.44l.62,3.69-1.56-.67v-1.15c1.49,1.08,2.3,1.56,3.93,1.56,2.28,0,3.79-1.05,3.79-2.92Z"/><path class="ac" d="M929.78,236.44c0-1.56-.93-2.25-3.02-3.07l-.91-.36c-2.44-.96-4.12-2.35-4.12-4.79,0-2.76,2.33-4.43,5.37-4.43,1.61,0,2.88,.5,3.91,1.27l-.14,3.12h-1.44l-.67-3.62,1.53,.79v1.2c-1.17-1.15-2.06-1.56-3.33-1.56-1.87,0-3.28,.94-3.28,2.73,0,1.51,.98,2.4,2.73,3.07l.94,.36c3.16,1.22,4.39,2.61,4.39,4.87,0,2.83-2.37,4.55-5.66,4.55-1.8,0-3.55-.58-4.65-1.27l.14-3.36h1.44l.62,3.69-1.56-.67v-1.15c1.49,1.08,2.3,1.56,3.93,1.56,2.28,0,3.79-1.05,3.79-2.92Z"/><path class="ac" d="M947.62,236.44c0-1.56-.93-2.25-3.02-3.07l-.91-.36c-2.44-.96-4.12-2.35-4.12-4.79,0-2.76,2.33-4.43,5.37-4.43,1.61,0,2.88,.5,3.91,1.27l-.14,3.12h-1.44l-.67-3.62,1.53,.79v1.2c-1.17-1.15-2.06-1.56-3.33-1.56-1.87,0-3.28,.94-3.28,2.73,0,1.51,.98,2.4,2.73,3.07l.93,.36c3.16,1.22,4.39,2.61,4.39,4.87,0,2.83-2.37,4.55-5.66,4.55-1.8,0-3.55-.58-4.65-1.27l.14-3.36h1.44l.62,3.69-1.56-.67v-1.15c1.49,1.08,2.3,1.56,3.93,1.56,2.28,0,3.79-1.05,3.79-2.92Z"/><path class="ac" d="M951.36,225.1v-.96h3.36v1.32h-.24l-3.12-.36Zm3.6,13.78l3.12,.36v.96h-6.71v-.96l3.12-.36h.48Zm-1.32-7.31c0-2.47,0-4.96-.07-7.43h2.3c-.07,2.42-.07,4.91-.07,7.43v1.46c0,2.45,0,4.7,.07,7.17h-2.3c.07-2.42,.07-4.91,.07-7.43v-1.2Zm3.45,2.28h-2.37v-1.1h2.73c2.95,0,4.1-1.56,4.1-3.84s-1.29-3.67-4.2-3.67h-2.64v-1.1h3.09c3.98,0,6.02,1.97,6.02,4.77s-1.85,4.94-6.74,4.94Z"/><path class="ac" d="M963.06,239.25l2.4-.36h.48l2.64,.36v.96h-5.51v-.96Zm7.14-15.22h1.44l5.51,16.18h-2.23l-4.82-14.36h.55l-4.89,14.36h-1.13l5.56-16.18Zm-2.8,9.83h6.47l.38,1.1h-7.24l.38-1.1Zm4.72,5.39l3.02-.36h.48l2.97,.36v.96h-6.47v-.96Z"/></g><g><path class="bd" d="M1092.39,223.84c-4.94,1.73-9.92,3.33-15.16,3.85-2.99,.29-5.96,.2-8.79-1.01-1.71-.74-3.14-1.83-4.35-3.39,.71,0,1.29,.03,1.88,0,3.68-.2,6.45-2.12,8.74-4.81,.63-.74,1.18-.94,2.12-.77,3.48,.62,6.94,1.29,10.22,2.67,1.85,.78,3.56,1.76,5.03,3.15,.09,.08,.22,.11,.33,.17v.16Z"/><path class="bd" d="M1042.15,185.16c.15,.22,.23,.39,.35,.52,5.02,5.66,8.13,12.18,8.97,19.74,.54,4.82-3.05,9.41-8.13,10.17-4.55,.68-9.34-1.9-10.45-6.83-.47-2.08-.14-4.11,.24-6.15,1.26-6.63,4.36-12.32,9.02-17.46Z"/><path class="bd" d="M1007.2,177.53c.35,.17,.63,.29,.9,.43,5.68,2.94,10.65,6.82,15.07,11.42,.19,.19,.35,.56,.3,.8-.66,3.53-.41,7.03,.33,10.52,.03,.13,.03,.25,.07,.56l-5.45-3.76c-.19,1.71-.42,3.25-.51,4.81-.09,1.53-.02,3.07-.02,4.69-8.53-8.02-11.67-17.94-10.71-29.48Z"/><path class="bd" d="M1076.91,177.59c1.81,9.7-3.69,24.76-10.75,29.38,.24-3.15,.2-6.24-.52-9.39l-5.32,3.68c.19-1.25,.38-2.36,.53-3.48,.34-2.48,.3-4.96-.12-7.43-.05-.29,.02-.71,.21-.9,4.54-4.74,9.66-8.73,15.54-11.7,.13-.07,.28-.11,.43-.17Z"/><path class="bd" d="M1042.06,244.29c-3.65-5.2-7.16-10.31-7.4-16.86-.03-.73-.01-1.47,.11-2.19,.69-4.1,4.07-6.38,8.46-5.75,4.06,.59,6.15,2.93,6.27,7.03,.07,2.39-.37,4.69-1.19,6.92-1.44,3.92-3.7,7.37-6.25,10.85Z"/><path class="bd" d="M1000.72,204.72c2.28-.98,4.66-1.3,7.06-.73,1.87,.44,3.66,1.2,5.47,1.86,.28,.1,.56,.39,.71,.67,3.95,7.16,9.67,12.21,17.54,14.68,.04,.01,.07,.06,.28,.24-1.39,.3-2.64,.64-3.91,.83-5.93,.86-11.25-.71-16.06-4.17-4.78-3.44-8.2-8.02-11.04-13.1-.04-.06-.03-.15-.06-.27Z"/><path class="bd" d="M1083.46,204.61c-.04,.22-.03,.3-.07,.36-2.84,5.11-6.29,9.71-11.09,13.15-4.4,3.16-9.29,4.77-14.75,4.27-1.69-.16-3.36-.57-5.03-.87l.03-.26c.87-.32,1.75-.63,2.61-.98,6.6-2.69,11.41-7.34,14.89-13.49,.25-.44,.69-.86,1.14-1.08,2.91-1.44,5.95-2.33,9.24-1.83,1.02,.15,2.02,.48,3.03,.72Z"/><path class="bd" d="M1042.05,179.29c-2.54,2.55-4.28,5.55-6.15,8.34l-4.17-4.49c2.08-5.99,5.9-11.51,10.25-16.7,.09,.04,.16,.04,.19,.07,4.15,4.9,7.76,10.13,10.07,16.18,.28,.74,.16,1.11-.44,1.62-1.23,1.04-2.35,2.22-3.54,3.36-1.91-2.83-3.65-5.85-6.2-8.39Z"/><path class="bd" d="M1019.97,223.41c-.19,.23-.43,.53-.69,.81-2.27,2.35-5.14,3.34-8.32,3.54-4.32,.28-8.49-.63-12.6-1.81-1.93-.55-3.84-1.21-5.76-1.82-.24-.08-.47-.19-.93-.38,1.13-.81,2.07-1.59,3.11-2.21,3.06-1.81,6.45-2.68,9.9-3.36,1.05-.21,2.12-.32,3.17-.55,.56-.12,.9,.01,1.26,.46,1.87,2.25,4.04,4.13,6.97,4.83,1.25,.3,2.56,.33,3.88,.49Z"/><path class="bd" d="M1013.66,237.13c1.33-4.09,2.93-7.68,5.92-10.51,1.17-1.1,2.56-1.58,4.12-1.68,.99-.06,1.99-.1,2.98-.22,2.53-.32,3.33-.7,5.87-2.7,1.31,.58,1.77,1.81,1.22,3.18-2.63,6.47-7.45,10.21-14.3,11.33-1.85,.3-3.74,.39-5.8,.6Z"/><path class="bd" d="M1070.33,237c-3.06,0-6.06-.33-8.97-1.28-4.82-1.58-8.26-4.71-10.4-9.29-.2-.43-.41-.85-.59-1.28-.54-1.33-.08-2.5,1.28-3.16,2.17,2.42,5.12,2.86,8.15,2.9,2.5,.04,4.4,1.07,5.96,2.95,2.17,2.63,3.57,5.65,4.58,8.87,.02,.07,0,.15-.02,.29Z"/><path class="bd" d="M1038.47,217.77c-2.61,1.78-5.3,2.11-8.08,1.24-5.2-1.63-8.22-5.35-9.67-10.46-.58-2.05-.7-4.56-.27-6.53,.1,.17,.17,.36,.29,.51,2.02,2.46,4.55,4.13,7.64,4.96,.27,.07,.55,.41,.67,.68,.61,1.44,1.02,2.98,1.76,4.34,1.48,2.75,3.84,4.43,6.92,5.06,.2,.04,.4,.1,.74,.19Z"/><path class="bd" d="M1045.75,217.8c.94-.28,1.79-.48,2.58-.79,2.7-1.07,4.51-3.08,5.66-5.69,.45-1.02,.73-2.12,1.12-3.17,.09-.25,.32-.57,.54-.63,3.27-.84,5.9-2.62,7.98-5.25,.04-.05,.12-.08,.25-.18,.29,2.77,.07,5.43-.92,7.97-1.8,4.64-4.94,7.92-9.9,9.12-2.58,.63-5.03,.22-7.32-1.39Z"/><path class="bd" d="M1029.09,205.47c-2.07-2.36-3.27-4.96-3.74-7.89-.76-4.72,.28-9.19,1.83-13.66,2.7,1.42,4.83,3.39,6.69,5.7,.59,.73,.64,1.27,.21,2.13-2.06,4.1-3.43,8.47-4.73,12.86-.07,.24-.15,.49-.26,.86Z"/><path class="bd" d="M1055.17,205.36c-1.22-3.49-2.38-6.92-3.63-10.33-.48-1.32-1.16-2.57-1.71-3.87-.1-.24-.14-.64,0-.83,1.86-2.65,4.17-4.81,7.19-6.43,.41,1.39,.85,2.71,1.18,4.06,.97,3.94,1.31,7.89,.09,11.85-.64,2.07-1.68,3.92-3.11,5.55Z"/></g><g><path class="ac" d="M1092.44,219.99c-4.94,1.73-9.92,3.33-15.16,3.85-2.99,.29-5.96,.2-8.79-1.01-1.71-.74-3.14-1.83-4.35-3.39,.71,0,1.29,.03,1.88,0,3.68-.2,6.45-2.12,8.74-4.81,.63-.74,1.18-.94,2.12-.77,3.48,.62,6.94,1.29,10.22,2.67,1.85,.78,3.56,1.76,5.03,3.15,.09,.08,.22,.11,.33,.17v.16Z"/><path class="ac" d="M1042.2,181.31c.15,.22,.23,.39,.35,.52,5.02,5.66,8.13,12.18,8.97,19.74,.54,4.82-3.05,9.41-8.13,10.17-4.55,.68-9.34-1.9-10.45-6.83-.47-2.08-.14-4.11,.24-6.15,1.26-6.63,4.36-12.32,9.02-17.46Z"/><path class="ac" d="M1007.25,173.68c.35,.17,.63,.29,.9,.43,5.68,2.94,10.65,6.82,15.07,11.42,.19,.19,.35,.56,.3,.8-.66,3.53-.41,7.03,.33,10.52,.03,.13,.03,.25,.07,.56l-5.45-3.76c-.19,1.71-.42,3.25-.51,4.81-.09,1.53-.02,3.07-.02,4.69-8.53-8.02-11.67-17.94-10.71-29.48Z"/><path class="ac" d="M1076.96,173.74c1.81,9.7-3.69,24.76-10.75,29.38,.24-3.15,.2-6.24-.52-9.39l-5.32,3.68c.19-1.25,.38-2.36,.53-3.48,.34-2.48,.3-4.96-.12-7.43-.05-.29,.02-.71,.21-.9,4.54-4.74,9.66-8.73,15.54-11.7,.13-.07,.28-.11,.43-.17Z"/><path class="ac" d="M1042.12,240.44c-3.65-5.2-7.16-10.31-7.4-16.86-.03-.73-.01-1.47,.11-2.19,.69-4.1,4.07-6.38,8.46-5.75,4.06,.59,6.15,2.93,6.27,7.03,.07,2.39-.37,4.69-1.19,6.92-1.44,3.92-3.7,7.37-6.25,10.85Z"/><path class="ac" d="M1000.78,200.87c2.28-.98,4.66-1.3,7.06-.73,1.87,.44,3.66,1.2,5.47,1.86,.28,.1,.56,.39,.71,.67,3.95,7.16,9.67,12.21,17.54,14.68,.04,.01,.07,.06,.28,.24-1.39,.3-2.64,.64-3.91,.83-5.93,.86-11.25-.71-16.06-4.17-4.78-3.44-8.2-8.02-11.04-13.1-.04-.06-.03-.15-.06-.27Z"/><path class="ac" d="M1083.51,200.76c-.04,.22-.03,.3-.07,.36-2.84,5.11-6.29,9.71-11.09,13.15-4.4,3.16-9.29,4.77-14.75,4.27-1.69-.16-3.36-.57-5.03-.87l.03-.26c.87-.32,1.75-.63,2.61-.98,6.6-2.69,11.41-7.34,14.89-13.49,.25-.44,.69-.86,1.14-1.08,2.91-1.44,5.95-2.33,9.24-1.83,1.02,.15,2.02,.48,3.03,.72Z"/><path class="ac" d="M1042.1,175.44c-2.54,2.55-4.28,5.55-6.15,8.34l-4.17-4.49c2.08-5.99,5.9-11.51,10.25-16.7,.09,.04,.16,.04,.19,.07,4.15,4.9,7.76,10.13,10.07,16.18,.28,.74,.16,1.11-.44,1.62-1.23,1.04-2.35,2.22-3.54,3.36-1.91-2.83-3.65-5.85-6.2-8.39Z"/><path class="ac" d="M1020.03,219.56c-.19,.23-.43,.53-.69,.81-2.27,2.35-5.14,3.34-8.32,3.54-4.32,.28-8.49-.63-12.6-1.81-1.93-.55-3.84-1.21-5.76-1.82-.24-.08-.47-.19-.93-.38,1.13-.81,2.07-1.59,3.11-2.21,3.06-1.81,6.45-2.68,9.9-3.36,1.05-.21,2.12-.32,3.17-.55,.56-.12,.9,.01,1.26,.46,1.87,2.25,4.04,4.13,6.97,4.83,1.25,.3,2.56,.33,3.88,.49Z"/><path class="ac" d="M1013.72,233.28c1.33-4.09,2.93-7.68,5.92-10.51,1.17-1.1,2.56-1.58,4.12-1.68,.99-.06,1.99-.1,2.98-.22,2.53-.32,3.33-.7,5.87-2.7,1.31,.58,1.77,1.81,1.22,3.18-2.63,6.47-7.45,10.21-14.3,11.33-1.85,.3-3.74,.39-5.8,.6Z"/><path class="ac" d="M1070.39,233.15c-3.06,0-6.06-.33-8.97-1.28-4.82-1.58-8.26-4.71-10.4-9.29-.2-.43-.41-.85-.59-1.28-.54-1.33-.08-2.5,1.28-3.16,2.17,2.42,5.12,2.86,8.15,2.9,2.5,.04,4.4,1.07,5.96,2.95,2.17,2.63,3.57,5.65,4.58,8.87,.02,.07,0,.15-.02,.29Z"/><path class="ac" d="M1038.53,213.92c-2.61,1.78-5.3,2.11-8.08,1.24-5.2-1.63-8.22-5.35-9.67-10.46-.58-2.05-.7-4.56-.27-6.53,.1,.17,.17,.36,.29,.51,2.02,2.46,4.55,4.13,7.64,4.96,.27,.07,.55,.41,.67,.68,.61,1.44,1.02,2.98,1.76,4.34,1.48,2.75,3.84,4.43,6.92,5.06,.2,.04,.4,.1,.74,.19Z"/><path class="ac" d="M1045.81,213.95c.94-.28,1.79-.48,2.58-.79,2.7-1.07,4.51-3.08,5.66-5.69,.45-1.02,.73-2.12,1.12-3.17,.09-.25,.32-.57,.54-.63,3.27-.84,5.9-2.62,7.98-5.25,.04-.05,.12-.08,.25-.18,.29,2.77,.07,5.43-.92,7.97-1.8,4.64-4.94,7.92-9.9,9.12-2.58,.63-5.03,.22-7.32-1.39Z"/><path class="ac" d="M1029.15,201.62c-2.07-2.36-3.27-4.96-3.74-7.89-.76-4.72,.28-9.19,1.83-13.66,2.7,1.42,4.83,3.39,6.69,5.7,.59,.73,.64,1.27,.21,2.13-2.06,4.1-3.43,8.47-4.73,12.86-.07,.24-.15,.49-.26,.86Z"/><path class="ac" d="M1055.23,201.51c-1.22-3.49-2.38-6.92-3.63-10.33-.48-1.32-1.16-2.57-1.71-3.87-.1-.24-.14-.64,0-.83,1.86-2.65,4.17-4.81,7.19-6.43,.41,1.39,.85,2.71,1.18,4.06,.97,3.94,1.31,7.89,.09,11.85-.64,2.07-1.68,3.92-3.11,5.55Z"/></g><g><path class="ak" d="M1094.29,218.44c-4.94,1.73-9.92,3.33-15.16,3.85-2.99,.29-5.96,.2-8.79-1.01-1.71-.74-3.14-1.83-4.35-3.39,.71,0,1.29,.03,1.88,0,3.68-.2,6.45-2.12,8.74-4.81,.63-.74,1.18-.94,2.12-.77,3.48,.62,6.94,1.29,10.22,2.67,1.85,.78,3.56,1.76,5.03,3.15,.09,.08,.22,.11,.33,.17v.16Z"/><path class="aw" d="M1044.05,179.76c.15,.22,.23,.39,.35,.52,5.02,5.66,8.13,12.18,8.97,19.74,.54,4.82-3.05,9.41-8.13,10.17-4.55,.68-9.34-1.9-10.45-6.83-.47-2.08-.14-4.11,.24-6.15,1.26-6.63,4.36-12.32,9.02-17.46Z"/><path class="b`" d="M1009.1,172.13c.35,.17,.63,.29,.9,.43,5.68,2.94,10.65,6.82,15.07,11.42,.19,.19,.35,.56,.3,.8-.66,3.53-.41,7.03,.33,10.52,.03,.13,.03,.25,.07,.56l-5.45-3.76c-.19,1.71-.42,3.25-.51,4.81-.09,1.53-.02,3.07-.02,4.69-8.53-8.02-11.67-17.94-10.71-29.48Z"/><path class="am" d="M1078.81,172.19c1.81,9.7-3.69,24.76-10.75,29.38,.24-3.15,.2-6.24-.52-9.39l-5.32,3.68c.19-1.25,.38-2.36,.53-3.48,.34-2.48,.3-4.96-.12-7.43-.05-.29,.02-.71,.21-.9,4.54-4.74,9.66-8.73,15.54-11.7,.13-.07,.28-.11,.43-.17Z"/><path class="bb" d="M1043.97,238.88c-3.65-5.2-7.16-10.31-7.4-16.86-.03-.73-.01-1.47,.11-2.19,.69-4.1,4.07-6.38,8.46-5.75,4.06,.59,6.15,2.93,6.27,7.03,.07,2.39-.37,4.69-1.19,6.92-1.44,3.92-3.7,7.37-6.25,10.85Z"/><path class="ad" d="M1002.63,199.31c2.28-.98,4.66-1.3,7.06-.73,1.87,.44,3.66,1.2,5.47,1.86,.28,.1,.56,.39,.71,.67,3.95,7.16,9.67,12.21,17.54,14.68,.04,.01,.07,.06,.28,.24-1.39,.3-2.64,.64-3.91,.83-5.93,.86-11.25-.71-16.06-4.17-4.78-3.44-8.2-8.02-11.04-13.1-.04-.06-.03-.15-.06-.27Z"/><path class="av" d="M1085.36,199.21c-.04,.22-.03,.3-.07,.36-2.84,5.11-6.29,9.71-11.09,13.15-4.4,3.16-9.29,4.77-14.75,4.27-1.69-.16-3.36-.57-5.03-.87l.03-.26c.87-.32,1.75-.63,2.61-.98,6.6-2.69,11.41-7.34,14.89-13.49,.25-.44,.69-.86,1.14-1.08,2.91-1.44,5.95-2.33,9.24-1.83,1.02,.15,2.02,.48,3.03,.72Z"/><path class="ab" d="M1043.95,173.89c-2.54,2.55-4.28,5.55-6.15,8.34l-4.17-4.49c2.08-5.99,5.9-11.51,10.25-16.7,.09,.04,.16,.04,.19,.07,4.15,4.9,7.76,10.13,10.07,16.18,.28,.74,.16,1.11-.44,1.62-1.23,1.04-2.35,2.22-3.54,3.36-1.91-2.83-3.65-5.85-6.2-8.39Z"/><path class="ah" d="M1021.88,218.01c-.19,.23-.43,.53-.69,.81-2.27,2.35-5.14,3.34-8.32,3.54-4.32,.28-8.49-.63-12.6-1.81-1.93-.55-3.84-1.21-5.76-1.82-.24-.08-.47-.19-.93-.38,1.13-.81,2.07-1.59,3.11-2.21,3.06-1.81,6.45-2.68,9.9-3.36,1.05-.21,2.12-.32,3.17-.55,.56-.12,.9,.01,1.26,.46,1.87,2.25,4.04,4.13,6.97,4.83,1.25,.3,2.56,.33,3.88,.49Z"/><path class="ai" d="M1015.57,231.73c1.33-4.09,2.93-7.68,5.92-10.51,1.17-1.1,2.56-1.58,4.12-1.68,.99-.06,1.99-.1,2.98-.22,2.53-.32,3.33-.7,5.87-2.7,1.31,.58,1.77,1.81,1.22,3.18-2.63,6.47-7.45,10.21-14.3,11.33-1.85,.3-3.74,.39-5.8,.6Z"/><path class="ax" d="M1072.24,231.6c-3.06,0-6.06-.33-8.97-1.28-4.82-1.58-8.26-4.71-10.4-9.29-.2-.43-.41-.85-.59-1.28-.54-1.33-.08-2.5,1.28-3.16,2.17,2.42,5.12,2.86,8.15,2.9,2.5,.04,4.4,1.07,5.96,2.95,2.17,2.63,3.57,5.65,4.58,8.87,.02,.07,0,.15-.02,.29Z"/><path class="at" d="M1040.38,212.37c-2.61,1.78-5.3,2.11-8.08,1.24-5.2-1.63-8.22-5.35-9.67-10.46-.58-2.05-.7-4.56-.27-6.53,.1,.17,.17,.36,.29,.51,2.02,2.46,4.55,4.13,7.64,4.96,.27,.07,.55,.41,.67,.68,.61,1.44,1.02,2.98,1.76,4.34,1.48,2.75,3.84,4.43,6.92,5.06,.2,.04,.4,.1,.74,.19Z"/><path class="ae" d="M1047.66,212.4c.94-.28,1.79-.48,2.58-.79,2.7-1.07,4.51-3.08,5.66-5.69,.45-1.02,.73-2.12,1.12-3.17,.09-.25,.32-.57,.54-.63,3.27-.84,5.9-2.62,7.98-5.25,.04-.05,.12-.08,.25-.18,.29,2.77,.07,5.43-.92,7.97-1.8,4.64-4.94,7.92-9.9,9.12-2.58,.63-5.03,.22-7.32-1.39Z"/><path class="aj" d="M1031,200.07c-2.07-2.36-3.27-4.96-3.74-7.89-.76-4.72,.28-9.19,1.83-13.66,2.7,1.42,4.83,3.39,6.69,5.7,.59,.73,.64,1.27,.21,2.13-2.06,4.1-3.43,8.47-4.73,12.86-.07,.24-.15,.49-.26,.86Z"/><path class="au" d="M1057.07,199.95c-1.22-3.49-2.38-6.92-3.63-10.33-.48-1.32-1.16-2.57-1.71-3.87-.1-.24-.14-.64,0-.83,1.86-2.65,4.17-4.81,7.19-6.43,.41,1.39,.85,2.71,1.18,4.06,.97,3.94,1.31,7.89,.09,11.85-.64,2.07-1.68,3.92-3.11,5.55Z"/></g></svg>